<svg width="16" height="13" viewBox="0 0 16 13" fill="none" xmlns="http://www.w3.org/2000/svg">
<path d="M0.945869 7.46678L12.7953 7.46678L9.6894 10.5633C9.51217 10.7405 9.41261 10.9808 9.41261 11.2315C9.41261 11.4821 9.51217 11.7225 9.6894 11.8997C9.86663 12.0769 10.107 12.1765 10.3576 12.1765C10.6083 12.1765 10.8486 12.0769 11.0259 11.8997L15.7318 7.19384C15.8174 7.10433 15.8846 6.99878 15.9294 6.88325C16.0235 6.65411 16.0235 6.3971 15.9294 6.16796C15.8846 6.05243 15.8174 5.94688 15.7318 5.85737L11.0259 1.15149C10.9384 1.06327 10.8343 0.993251 10.7196 0.945469C10.6049 0.897686 10.4819 0.873086 10.3576 0.873086C10.2334 0.873086 10.1104 0.897686 9.99568 0.945468C9.88099 0.993251 9.77689 1.06327 9.6894 1.15149C9.60118 1.23898 9.53117 1.34307 9.48338 1.45777C9.4356 1.57246 9.411 1.69547 9.411 1.81972C9.411 1.94397 9.4356 2.06698 9.48338 2.18167C9.53117 2.29637 9.60118 2.40046 9.6894 2.48795L12.7953 5.58443L0.945869 5.58443C0.696254 5.58443 0.456861 5.68358 0.280356 5.86009C0.103851 6.03659 0.00469275 6.27599 0.00469273 6.5256C0.00469271 6.77522 0.103851 7.01461 0.280356 7.19111C0.456861 7.36762 0.696254 7.46678 0.945869 7.46678Z" fill="white"/>
</svg>
