<svg width="8" height="5" viewBox="0 0 8 5" fill="none" xmlns="http://www.w3.org/2000/svg">
<path d="M7.33334 0.613539C7.20843 0.489372 7.03946 0.419678 6.86334 0.419678C6.68722 0.419678 6.51825 0.489372 6.39334 0.613539L4.00001 2.97354L1.64001 0.613539C1.5151 0.489372 1.34613 0.419678 1.17001 0.419678C0.993883 0.419678 0.824915 0.489372 0.700006 0.613539C0.637521 0.675515 0.587925 0.749249 0.554079 0.830488C0.520233 0.911728 0.502808 0.998865 0.502808 1.08687C0.502808 1.17488 0.520233 1.26202 0.554079 1.34326C0.587925 1.4245 0.637521 1.49823 0.700006 1.56021L3.52667 4.38687C3.58865 4.44936 3.66238 4.49895 3.74362 4.5328C3.82486 4.56665 3.912 4.58407 4.00001 4.58407C4.08801 4.58407 4.17515 4.56665 4.25639 4.5328C4.33763 4.49895 4.41136 4.44936 4.47334 4.38687L7.33334 1.56021C7.39582 1.49823 7.44542 1.4245 7.47927 1.34326C7.51311 1.26202 7.53054 1.17488 7.53054 1.08687C7.53054 0.998865 7.51311 0.911728 7.47927 0.830488C7.44542 0.749249 7.39582 0.675515 7.33334 0.613539Z" fill="#17505C"/>
</svg>
