<svg width="18" height="17" viewBox="0 0 18 17" fill="none" xmlns="http://www.w3.org/2000/svg">
<path d="M9.00002 10.1667C9.16484 10.1667 9.32596 10.1179 9.463 10.0263C9.60004 9.93474 9.70685 9.80459 9.76992 9.65232C9.83299 9.50005 9.8495 9.33249 9.81734 9.17084C9.78519 9.00919 9.70582 8.8607 9.58928 8.74416C9.47273 8.62762 9.32425 8.54825 9.1626 8.51609C9.00095 8.48394 8.83339 8.50044 8.68112 8.56352C8.52885 8.62659 8.3987 8.7334 8.30713 8.87044C8.21556 9.00748 8.16669 9.1686 8.16669 9.33342C8.16669 9.55443 8.25449 9.76639 8.41077 9.92267C8.56705 10.079 8.77901 10.1667 9.00002 10.1667ZM13.1667 10.1667C13.3315 10.1667 13.4926 10.1179 13.6297 10.0263C13.7667 9.93474 13.8735 9.80459 13.9366 9.65232C13.9997 9.50005 14.0162 9.33249 13.984 9.17084C13.9519 9.00919 13.8725 8.8607 13.7559 8.74416C13.6394 8.62762 13.4909 8.54825 13.3293 8.51609C13.1676 8.48394 13.0001 8.50044 12.8478 8.56352C12.6955 8.62659 12.5654 8.7334 12.4738 8.87044C12.3822 9.00748 12.3334 9.1686 12.3334 9.33342C12.3334 9.55443 12.4212 9.76639 12.5774 9.92267C12.7337 10.079 12.9457 10.1667 13.1667 10.1667ZM9.00002 13.5001C9.16484 13.5001 9.32596 13.4512 9.463 13.3596C9.60004 13.2681 9.70685 13.1379 9.76992 12.9857C9.83299 12.8334 9.8495 12.6658 9.81734 12.5042C9.78519 12.3425 9.70582 12.194 9.58928 12.0775C9.47273 11.9609 9.32425 11.8816 9.1626 11.8494C9.00095 11.8173 8.83339 11.8338 8.68112 11.8968C8.52885 11.9599 8.3987 12.0667 8.30713 12.2038C8.21556 12.3408 8.16669 12.5019 8.16669 12.6667C8.16669 12.8878 8.25449 13.0997 8.41077 13.256C8.56705 13.4123 8.77901 13.5001 9.00002 13.5001ZM13.1667 13.5001C13.3315 13.5001 13.4926 13.4512 13.6297 13.3596C13.7667 13.2681 13.8735 13.1379 13.9366 12.9857C13.9997 12.8334 14.0162 12.6658 13.984 12.5042C13.9519 12.3425 13.8725 12.194 13.7559 12.0775C13.6394 11.9609 13.4909 11.8816 13.3293 11.8494C13.1676 11.8173 13.0001 11.8338 12.8478 11.8968C12.6955 11.9599 12.5654 12.0667 12.4738 12.2038C12.3822 12.3408 12.3334 12.5019 12.3334 12.6667C12.3334 12.8878 12.4212 13.0997 12.5774 13.256C12.7337 13.4123 12.9457 13.5001 13.1667 13.5001ZM4.83335 10.1667C4.99817 10.1667 5.15929 10.1179 5.29633 10.0263C5.43337 9.93474 5.54018 9.80459 5.60325 9.65232C5.66633 9.50005 5.68283 9.33249 5.65067 9.17084C5.61852 9.00919 5.53915 8.8607 5.42261 8.74416C5.30607 8.62762 5.15758 8.54825 4.99593 8.51609C4.83428 8.48394 4.66672 8.50044 4.51445 8.56352C4.36218 8.62659 4.23203 8.7334 4.14046 8.87044C4.04889 9.00748 4.00002 9.1686 4.00002 9.33342C4.00002 9.55443 4.08782 9.76639 4.2441 9.92267C4.40038 10.079 4.61234 10.1667 4.83335 10.1667ZM14.8334 1.83341H14V1.00008C14 0.779068 13.9122 0.567106 13.7559 0.410826C13.5997 0.254545 13.3877 0.166748 13.1667 0.166748C12.9457 0.166748 12.7337 0.254545 12.5774 0.410826C12.4212 0.567106 12.3334 0.779068 12.3334 1.00008V1.83341H5.66669V1.00008C5.66669 0.779068 5.57889 0.567106 5.42261 0.410826C5.26633 0.254545 5.05437 0.166748 4.83335 0.166748C4.61234 0.166748 4.40038 0.254545 4.2441 0.410826C4.08782 0.567106 4.00002 0.779068 4.00002 1.00008V1.83341H3.16669C2.50365 1.83341 1.86776 2.09681 1.39892 2.56565C0.930079 3.03449 0.666687 3.67037 0.666687 4.33342V14.3334C0.666687 14.9965 0.930079 15.6323 1.39892 16.1012C1.86776 16.57 2.50365 16.8334 3.16669 16.8334H14.8334C15.4964 16.8334 16.1323 16.57 16.6011 16.1012C17.07 15.6323 17.3334 14.9965 17.3334 14.3334V4.33342C17.3334 3.67037 17.07 3.03449 16.6011 2.56565C16.1323 2.09681 15.4964 1.83341 14.8334 1.83341ZM15.6667 14.3334C15.6667 14.5544 15.5789 14.7664 15.4226 14.9227C15.2663 15.079 15.0544 15.1667 14.8334 15.1667H3.16669C2.94567 15.1667 2.73371 15.079 2.57743 14.9227C2.42115 14.7664 2.33335 14.5544 2.33335 14.3334V6.83342H15.6667V14.3334ZM15.6667 5.16675H2.33335V4.33342C2.33335 4.1124 2.42115 3.90044 2.57743 3.74416C2.73371 3.58788 2.94567 3.50008 3.16669 3.50008H14.8334C15.0544 3.50008 15.2663 3.58788 15.4226 3.74416C15.5789 3.90044 15.6667 4.1124 15.6667 4.33342V5.16675ZM4.83335 13.5001C4.99817 13.5001 5.15929 13.4512 5.29633 13.3596C5.43337 13.2681 5.54018 13.1379 5.60325 12.9857C5.66633 12.8334 5.68283 12.6658 5.65067 12.5042C5.61852 12.3425 5.53915 12.194 5.42261 12.0775C5.30607 11.9609 5.15758 11.8816 4.99593 11.8494C4.83428 11.8173 4.66672 11.8338 4.51445 11.8968C4.36218 11.9599 4.23203 12.0667 4.14046 12.2038C4.04889 12.3408 4.00002 12.5019 4.00002 12.6667C4.00002 12.8878 4.08782 13.0997 4.2441 13.256C4.40038 13.4123 4.61234 13.5001 4.83335 13.5001Z" fill="#02323D"/>
</svg>
