<svg width="12" height="12" viewBox="0 0 12 12" fill="none" xmlns="http://www.w3.org/2000/svg">
<path d="M6.94001 5.99988L11.14 1.80655C11.2655 1.68101 11.3361 1.51075 11.3361 1.33321C11.3361 1.15568 11.2655 0.985415 11.14 0.859879C11.0145 0.734344 10.8442 0.663818 10.6667 0.663818C10.4891 0.663818 10.3189 0.734344 10.1933 0.859879L6.00001 5.05988L1.80668 0.859879C1.68114 0.734344 1.51088 0.663819 1.33334 0.663819C1.15581 0.663819 0.985546 0.734344 0.86001 0.859879C0.734474 0.985415 0.663949 1.15568 0.663949 1.33321C0.663949 1.51075 0.734474 1.68101 0.86001 1.80655L5.06001 5.99988L0.86001 10.1932C0.797525 10.2552 0.747929 10.3289 0.714083 10.4102C0.680237 10.4914 0.662811 10.5785 0.662811 10.6665C0.662811 10.7546 0.680237 10.8417 0.714083 10.9229C0.747929 11.0042 0.797525 11.0779 0.86001 11.1399C0.921985 11.2024 0.995719 11.252 1.07696 11.2858C1.1582 11.3197 1.24534 11.3371 1.33334 11.3371C1.42135 11.3371 1.50849 11.3197 1.58973 11.2858C1.67097 11.252 1.7447 11.2024 1.80668 11.1399L6.00001 6.93988L10.1933 11.1399C10.2553 11.2024 10.3291 11.252 10.4103 11.2858C10.4915 11.3197 10.5787 11.3371 10.6667 11.3371C10.7547 11.3371 10.8418 11.3197 10.9231 11.2858C11.0043 11.252 11.078 11.2024 11.14 11.1399C11.2025 11.0779 11.2521 11.0042 11.2859 10.9229C11.3198 10.8417 11.3372 10.7546 11.3372 10.6665C11.3372 10.5785 11.3198 10.4914 11.2859 10.4102C11.2521 10.3289 11.2025 10.2552 11.14 10.1932L6.94001 5.99988Z" fill="#A4C1C8"/>
</svg>
