<svg width="12" height="17" viewBox="0 0 12 17" fill="none" xmlns="http://www.w3.org/2000/svg">
<path d="M11.1225 6.58024C11.0537 6.47846 10.961 6.39514 10.8524 6.3376C10.7439 6.28006 10.6229 6.25006 10.5 6.25024H8.25V4.75024H9.9C10.0989 4.75024 10.2897 4.67123 10.4303 4.53057C10.571 4.38992 10.65 4.19916 10.65 4.00024V1.00024C10.65 0.801332 10.571 0.610566 10.4303 0.469914C10.2897 0.329262 10.0989 0.250244 9.9 0.250244H7.5C6.34631 0.250244 5.23987 0.708546 4.42409 1.52433C3.6083 2.34011 3.15 3.44655 3.15 4.60024V6.25024H1.5C1.30109 6.25024 1.11032 6.32926 0.96967 6.46991C0.829018 6.61057 0.75 6.80133 0.75 7.00024V10.0002C0.75 10.1992 0.829018 10.3899 0.96967 10.5306C1.11032 10.6712 1.30109 10.7502 1.5 10.7502H3.15V16.0002C3.15 16.1992 3.22902 16.3899 3.36967 16.5306C3.51032 16.6712 3.70109 16.7502 3.9 16.7502H7.5C7.69891 16.7502 7.88968 16.6712 8.03033 16.5306C8.17098 16.3899 8.25 16.1992 8.25 16.0002V10.7502H9.3C9.45021 10.7504 9.597 10.7054 9.72136 10.6212C9.84572 10.5369 9.94192 10.4173 9.9975 10.2777L11.1975 7.27774C11.2428 7.16418 11.2597 7.04125 11.2466 6.91968C11.2335 6.79812 11.1909 6.68159 11.1225 6.58024ZM8.79 9.25024H7.5C7.30109 9.25024 7.11032 9.32926 6.96967 9.46991C6.82902 9.61057 6.75 9.80133 6.75 10.0002V15.2502H4.65V10.0002C4.65 9.80133 4.57098 9.61057 4.43033 9.46991C4.28968 9.32926 4.09891 9.25024 3.9 9.25024H2.25V7.75024H3.9C4.09891 7.75024 4.28968 7.67123 4.43033 7.53057C4.57098 7.38992 4.65 7.19916 4.65 7.00024V4.60024C4.65198 3.84499 4.95288 3.12123 5.48693 2.58718C6.02098 2.05313 6.74474 1.75222 7.5 1.75024H9.15V3.25024H8.55C8.29606 3.21325 8.03724 3.22877 7.78954 3.29586C7.54185 3.36294 7.31056 3.48016 7.11 3.64024C6.98829 3.76767 6.89365 3.91842 6.83177 4.08341C6.7699 4.2484 6.74209 4.42421 6.75 4.60024V7.00024C6.75 7.19916 6.82902 7.38992 6.96967 7.53057C7.11032 7.67123 7.30109 7.75024 7.5 7.75024H9.39L8.79 9.25024Z" fill="#17505C"/>
</svg>
