<svg width="14" height="14" viewBox="0 0 14 14" fill="none" xmlns="http://www.w3.org/2000/svg">
<path d="M10.7083 13.373C10.6003 13.373 10.4938 13.3467 10.3981 13.2965L7 11.5101L3.60189 13.2965C3.49177 13.3544 3.36766 13.3803 3.24358 13.3713C3.11951 13.3624 3.00041 13.3189 2.89977 13.2457C2.79912 13.1726 2.72093 13.0728 2.67405 12.9576C2.62716 12.8424 2.61344 12.7163 2.63444 12.5937L3.28353 8.80986L0.534508 6.13052C0.445453 6.04367 0.382467 5.93363 0.352668 5.81286C0.322869 5.69208 0.327445 5.56538 0.365879 5.44706C0.404313 5.32875 0.475073 5.22355 0.570162 5.14334C0.66525 5.06314 0.780877 5.01113 0.903975 4.99319L4.70313 4.4411L6.402 0.998662C6.4634 0.894697 6.55085 0.808537 6.65572 0.748683C6.76058 0.688829 6.87924 0.657349 6.99998 0.657349C7.12073 0.657349 7.23938 0.688829 7.34425 0.748683C7.44911 0.808537 7.53656 0.894697 7.59796 0.998662L9.29686 4.44104L13.096 4.99313C13.2191 5.01107 13.3347 5.06308 13.4298 5.14328C13.5249 5.22349 13.5957 5.32869 13.6341 5.447C13.6725 5.56532 13.6771 5.69202 13.6473 5.8128C13.6175 5.93357 13.5545 6.04361 13.4655 6.13046L10.7165 8.8098L11.3655 12.5936C11.382 12.6893 11.3773 12.7875 11.3518 12.8812C11.3263 12.9749 11.2807 13.0619 11.2181 13.1361C11.1555 13.2103 11.0774 13.27 10.9894 13.3109C10.9013 13.3518 10.8054 13.373 10.7083 13.373L10.7083 13.373Z" fill="#FF914D"/>
</svg>
