<svg width="14" height="14" viewBox="0 0 14 14" fill="none" xmlns="http://www.w3.org/2000/svg">
<path d="M13.6666 5.73337C13.7333 5.40004 13.4666 5.00004 13.1333 5.00004L9.33331 4.46671L7.59998 1.00004C7.53331 0.866707 7.46665 0.80004 7.33331 0.733374C6.99998 0.533374 6.59998 0.666707 6.39998 1.00004L4.73331 4.46671L0.933313 5.00004C0.733313 5.00004 0.59998 5.06671 0.533313 5.20004C0.266646 5.46671 0.266646 5.86671 0.533313 6.13337L3.26665 8.80004L2.59998 12.6C2.59998 12.7334 2.59998 12.8667 2.66665 13C2.86665 13.3334 3.26665 13.4667 3.59998 13.2667L6.99998 11.4667L10.4 13.2667C10.4666 13.3334 10.6 13.3334 10.7333 13.3334C10.8 13.3334 10.8 13.3334 10.8666 13.3334C11.2 13.2667 11.4666 12.9334 11.4 12.5334L10.7333 8.73337L13.4666 6.06671C13.6 6.00004 13.6666 5.86671 13.6666 5.73337ZM9.53331 8.06671C9.39998 8.20004 9.33331 8.46671 9.33331 8.66671L9.79998 11.4667L7.26665 10.1334C7.19998 10.0667 7.06665 10.0667 6.93331 10.0667V2.80004L8.19998 5.33337C8.26665 5.53337 8.46665 5.66671 8.73331 5.66671L11.5333 6.06671L9.53331 8.06671Z" fill="#FF914D"/>
</svg>
