<svg width="16" height="15" viewBox="0 0 16 15" fill="none" xmlns="http://www.w3.org/2000/svg">
<path d="M8 3.75024C7.25832 3.75024 6.5333 3.97018 5.91661 4.38223C5.29993 4.79429 4.81928 5.37996 4.53545 6.06518C4.25162 6.7504 4.17736 7.5044 4.32206 8.23183C4.46675 8.95926 4.8239 9.62745 5.34835 10.1519C5.8728 10.6763 6.54098 11.0335 7.26841 11.1782C7.99584 11.3229 8.74984 11.2486 9.43506 10.9648C10.1203 10.681 10.706 10.2003 11.118 9.58363C11.5301 8.96695 11.75 8.24192 11.75 7.50024C11.75 6.50568 11.3549 5.55186 10.6517 4.84859C9.94839 4.14533 8.99456 3.75024 8 3.75024ZM8 9.75024C7.55499 9.75024 7.11998 9.61828 6.74997 9.37105C6.37996 9.12382 6.09157 8.77242 5.92127 8.36128C5.75097 7.95015 5.70642 7.49775 5.79323 7.06129C5.88005 6.62483 6.09434 6.22392 6.40901 5.90925C6.72368 5.59459 7.12459 5.38029 7.56105 5.29348C7.9975 5.20666 8.4499 5.25122 8.86104 5.42151C9.27217 5.59181 9.62357 5.8802 9.87081 6.25021C10.118 6.62022 10.25 7.05524 10.25 7.50024C10.25 8.09698 10.0129 8.66928 9.59099 9.09123C9.16903 9.51319 8.59674 9.75024 8 9.75024ZM11.75 3.00024C11.6017 3.00024 11.4567 3.04423 11.3333 3.12664C11.21 3.20905 11.1139 3.32619 11.0571 3.46323C11.0003 3.60028 10.9855 3.75108 11.0144 3.89656C11.0434 4.04205 11.1148 4.17568 11.2197 4.28057C11.3246 4.38546 11.4582 4.45689 11.6037 4.48583C11.7492 4.51477 11.9 4.49992 12.037 4.44315C12.1741 4.38639 12.2912 4.29026 12.3736 4.16692C12.456 4.04358 12.5 3.89858 12.5 3.75024C12.5 3.55133 12.421 3.36057 12.2803 3.21991C12.1397 3.07926 11.9489 3.00024 11.75 3.00024ZM15.455 4.68024C15.4426 4.03931 15.3208 3.4052 15.095 2.80524C14.8856 2.25929 14.5637 1.76349 14.1502 1.35002C13.7368 0.936547 13.241 0.614656 12.695 0.405244C12.095 0.179419 11.4609 0.0576699 10.82 0.0452441C10.0925 0.000244099 9.8525 0.000244141 8 0.000244141C6.1475 0.000244141 5.9075 0.000244099 5.18 0.0452441C4.53907 0.0576699 3.90496 0.179419 3.305 0.405244C2.75905 0.614656 2.26324 0.936547 1.84977 1.35002C1.4363 1.76349 1.11441 2.25929 0.905 2.80524C0.679174 3.4052 0.557426 4.03931 0.545 4.68024C0.5 5.41524 0.5 5.65524 0.5 7.50024C0.5 9.34524 0.5 9.58524 0.545 10.3202C0.557426 10.9612 0.679174 11.5953 0.905 12.1952C1.11441 12.7412 1.4363 13.237 1.84977 13.6505C2.26324 14.0639 2.75905 14.3858 3.305 14.5952C3.90496 14.8211 4.53907 14.9428 5.18 14.9552C5.93 14.9552 6.1475 15.0002 8 15.0002C9.8525 15.0002 10.0925 15.0002 10.82 14.9552C11.4609 14.9428 12.095 14.8211 12.695 14.5952C13.241 14.3858 13.7368 14.0639 14.1502 13.6505C14.5637 13.237 14.8856 12.7412 15.095 12.1952C15.3208 11.5953 15.4426 10.9612 15.455 10.3202C15.455 9.57024 15.5 9.34524 15.5 7.50024C15.5 5.65524 15.5 5.41524 15.455 4.68024ZM13.955 10.2527C13.9419 10.7287 13.8533 11.1996 13.6925 11.6477C13.5596 12.002 13.3495 12.3222 13.0775 12.5852C12.8161 12.8574 12.4952 13.0653 12.14 13.1927C11.6908 13.3601 11.2168 13.4513 10.7375 13.4627C10.0325 13.4627 9.815 13.5002 7.9925 13.5002C6.17 13.5002 5.96 13.5002 5.255 13.5002C4.77652 13.4879 4.30306 13.3993 3.8525 13.2377C3.49824 13.1048 3.178 12.8948 2.915 12.6227C2.64287 12.3613 2.43494 12.0404 2.3075 11.6852C2.14085 11.2384 2.04961 10.767 2.0375 10.2902C2.0375 9.54024 2.0375 9.35274 2.0375 7.53774C2.0375 5.72274 2.0375 5.50524 2.0375 4.78524C2.05043 4.30615 2.14163 3.8324 2.3075 3.38274C2.43692 3.03072 2.64465 2.71271 2.915 2.45274C3.17643 2.18061 3.49731 1.97268 3.8525 1.84524C4.30174 1.67792 4.77574 1.58666 5.255 1.57524C5.96 1.50024 6.1775 1.50024 8 1.50024C9.8225 1.50024 10.04 1.50024 10.745 1.50024C11.2266 1.51249 11.7029 1.6037 12.155 1.77024C12.507 1.89966 12.825 2.10739 13.085 2.37774C13.3571 2.63918 13.5651 2.96005 13.6925 3.31524C13.8761 3.77167 13.9801 4.25618 14 4.74774C14 5.49774 14.0375 5.68524 14.0375 7.50024C14.0375 9.31524 14 9.53274 14 10.2527H13.955Z" fill="#17505C"/>
</svg>
