<svg width="12" height="21" viewBox="0 0 12 21" fill="none" xmlns="http://www.w3.org/2000/svg">
<path d="M11.31 8.93506L2.81997 0.460055C2.68053 0.319462 2.51463 0.207871 2.33184 0.131718C2.14905 0.0555651 1.95299 0.0163574 1.75497 0.0163574C1.55696 0.0163574 1.3609 0.0555651 1.17811 0.131718C0.995319 0.207871 0.829417 0.319462 0.689973 0.460055C0.410596 0.741099 0.253784 1.12128 0.253784 1.51755C0.253784 1.91383 0.410596 2.29401 0.689973 2.57506L8.11497 10.0751L0.689973 17.5001C0.410596 17.7811 0.253784 18.1613 0.253784 18.5576C0.253784 18.9538 0.410596 19.334 0.689973 19.6151C0.828895 19.7568 0.994562 19.8695 1.17738 19.9468C1.36019 20.024 1.55651 20.0642 1.75497 20.0651C1.95343 20.0642 2.14976 20.024 2.33257 19.9468C2.51538 19.8695 2.68105 19.7568 2.81997 19.6151L11.31 11.1401C11.4622 10.9996 11.5837 10.8291 11.6669 10.6394C11.75 10.4496 11.7929 10.2447 11.7929 10.0376C11.7929 9.8304 11.75 9.6255 11.6669 9.43575C11.5837 9.246 11.4622 9.07552 11.31 8.93506Z" fill="#17505C"/>
</svg>
