<svg width="14" height="17" viewBox="0 0 14 17" fill="none" xmlns="http://www.w3.org/2000/svg">
<path d="M7.00003 7.49991C7.32967 7.49991 7.6519 7.40216 7.92598 7.21903C8.20007 7.03589 8.41369 6.77559 8.53983 6.47105C8.66598 6.16651 8.69898 5.8314 8.63468 5.50809C8.57037 5.18479 8.41163 4.88782 8.17854 4.65473C7.94546 4.42165 7.64849 4.26291 7.32518 4.1986C7.00188 4.13429 6.66677 4.1673 6.36223 4.29344C6.05768 4.41959 5.79739 4.63321 5.61425 4.90729C5.43111 5.18138 5.33337 5.50361 5.33337 5.83324C5.33337 6.27527 5.50896 6.69919 5.82152 7.01175C6.13408 7.32432 6.55801 7.49991 7.00003 7.49991ZM6.40837 13.2582C6.48584 13.3364 6.578 13.3983 6.67955 13.4407C6.7811 13.483 6.89002 13.5047 7.00003 13.5047C7.11004 13.5047 7.21896 13.483 7.32051 13.4407C7.42206 13.3983 7.51423 13.3364 7.5917 13.2582L11 9.84158C11.7917 9.05036 12.3309 8.04215 12.5494 6.94446C12.768 5.84677 12.6561 4.70892 12.2279 3.67482C11.7998 2.64072 11.0745 1.75684 10.1439 1.13496C9.21337 0.513083 8.11927 0.181152 7.00003 0.181152C5.88079 0.181152 4.7867 0.513083 3.85612 1.13496C2.92555 1.75684 2.20031 2.64072 1.77213 3.67482C1.34395 4.70892 1.23207 5.84677 1.45064 6.94446C1.66921 8.04215 2.2084 9.05036 3.00003 9.84158L6.40837 13.2582ZM3.02503 5.44991C3.08197 4.85576 3.27088 4.28182 3.57797 3.77001C3.88506 3.25819 4.30257 2.82142 4.80003 2.49158C5.45354 2.06249 6.21825 1.83388 7.00003 1.83388C7.78181 1.83388 8.54653 2.06249 9.20003 2.49158C9.69417 2.82029 10.1093 3.25441 10.4156 3.76273C10.722 4.27105 10.9118 4.84094 10.9716 5.4314C11.0314 6.02186 10.9595 6.61823 10.7613 7.17762C10.563 7.73701 10.2433 8.24552 9.82503 8.66658L7.00003 11.4916L4.17503 8.66658C3.7563 8.24961 3.43581 7.74452 3.23687 7.18808C3.03794 6.63164 2.96557 6.03784 3.02503 5.44991ZM12.8334 15.1666H1.1667C0.945686 15.1666 0.733725 15.2544 0.577444 15.4107C0.421164 15.5669 0.333366 15.7789 0.333366 15.9999C0.333366 16.2209 0.421164 16.4329 0.577444 16.5892C0.733725 16.7454 0.945686 16.8332 1.1667 16.8332H12.8334C13.0544 16.8332 13.2663 16.7454 13.4226 16.5892C13.5789 16.4329 13.6667 16.2209 13.6667 15.9999C13.6667 15.7789 13.5789 15.5669 13.4226 15.4107C13.2663 15.2544 13.0544 15.1666 12.8334 15.1666Z" fill="#02323D"/>
</svg>
