<svg width="130" height="36" viewBox="0 0 130 36" fill="none" xmlns="http://www.w3.org/2000/svg">
<path d="M46.2168 30.2405C45.7175 30.2405 45.3556 30.13 45.131 29.9092C44.9313 29.6883 44.8314 29.357 44.8314 28.9153V6.57145C44.8314 6.10519 44.9313 5.76163 45.131 5.54077C45.3556 5.3199 45.7175 5.20947 46.2168 5.20947H57.0374C59.6334 5.20947 61.5928 5.82298 62.9158 7.04999C64.2637 8.277 64.9376 9.93346 64.9376 12.0194C64.9376 13.1973 64.6381 14.2525 64.039 15.1851C63.44 16.1176 62.6038 16.8047 61.5304 17.2464C64.3011 18.1053 65.6865 20.0195 65.6865 22.9888C65.6865 24.3631 65.362 25.6024 64.713 26.7067C64.089 27.7864 63.1404 28.6454 61.8674 29.2834C60.5944 29.9214 59.0218 30.2405 57.1498 30.2405H46.2168ZM56.3635 15.6636C57.5866 15.6636 58.5226 15.3568 59.1716 14.7433C59.8456 14.1298 60.1825 13.2709 60.1825 12.1666C60.1825 10.9641 59.8705 10.1052 59.2465 9.5899C58.6474 9.05001 57.6739 8.78007 56.326 8.78007H49.624V15.6636H56.3635ZM56.9251 26.6699C58.298 26.6699 59.3089 26.3263 59.9579 25.6392C60.6069 24.9275 60.9314 24.0195 60.9314 22.9152C60.9314 21.6391 60.532 20.6821 59.7332 20.044C58.9594 19.3814 57.8736 19.0501 56.4758 19.0501H49.624V26.6699H56.9251Z" fill="#02323D"/>
<path d="M78.7639 30.7926C75.5189 30.7926 73.0103 29.9583 71.2381 28.2895C69.4908 26.5963 68.6172 24.3017 68.6172 21.406C68.6172 18.5103 69.4908 16.228 71.2381 14.5593C73.0103 12.866 75.5189 12.0194 78.7639 12.0194C82.0088 12.0194 84.5174 12.866 86.2897 14.5593C88.0619 16.228 88.948 18.5103 88.948 21.406C88.948 24.3017 88.0619 26.5963 86.2897 28.2895C84.5174 29.9583 82.0088 30.7926 78.7639 30.7926ZM78.7639 27.3325C80.5361 27.3325 81.884 26.8294 82.8076 25.8232C83.7311 24.8171 84.1929 23.3447 84.1929 21.406C84.1929 19.4919 83.7311 18.044 82.8076 17.0624C81.884 16.0562 80.5361 15.5532 78.7639 15.5532C77.0166 15.5532 75.6687 16.0562 74.7202 17.0624C73.7966 18.044 73.3348 19.4919 73.3348 21.406C73.3348 23.3201 73.7966 24.7925 74.7202 25.8232C75.6687 26.8294 77.0166 27.3325 78.7639 27.3325Z" fill="#02323D"/>
<path d="M94.0062 30.2405C93.507 30.2405 93.145 30.13 92.9204 29.9092C92.7207 29.6883 92.6208 29.357 92.6208 28.9153V6.57145C92.6208 6.10519 92.7207 5.76163 92.9204 5.54077C93.145 5.3199 93.507 5.20947 94.0062 5.20947H95.9906C96.4898 5.20947 96.8517 5.3199 97.0764 5.54077C97.301 5.76163 97.4134 6.10519 97.4134 6.57145V28.9153C97.4134 29.357 97.301 29.6883 97.0764 29.9092C96.8767 30.13 96.5148 30.2405 95.9906 30.2405H94.0062ZM106.137 30.2405C105.863 30.2405 105.663 30.2159 105.538 30.1669C105.413 30.1178 105.276 30.0073 105.126 29.8356L98.5366 22.5103C98.312 22.2649 98.1497 22.044 98.0499 21.8477C97.95 21.6269 97.9001 21.3569 97.9001 21.0379C97.9001 20.7189 97.95 20.4612 98.0499 20.2649C98.1497 20.044 98.312 19.8109 98.5366 19.5655L104.902 13.0133C105.051 12.8415 105.189 12.731 105.314 12.682C105.463 12.6083 105.7 12.5715 106.025 12.5715H109.507C109.682 12.5715 109.807 12.6206 109.881 12.7188C109.981 12.8169 110.031 12.9396 110.031 13.0869C110.031 13.2832 109.956 13.455 109.807 13.6022L102.356 21.0379L110.069 29.2098C110.218 29.357 110.293 29.5165 110.293 29.6883C110.293 29.8356 110.243 29.9705 110.144 30.0932C110.044 30.1914 109.906 30.2405 109.732 30.2405H106.137Z" fill="#02323D"/>
<path d="M118.423 30.7926C115.976 30.7926 114.029 30.0687 112.582 28.6208C111.134 27.1484 110.41 25.087 110.41 22.4367C110.41 20.3753 110.872 18.5593 111.795 16.9888C112.719 15.3937 114.029 14.1666 115.727 13.3077C117.449 12.4488 119.446 12.0194 121.717 12.0194C124.888 12.0194 127.571 12.7556 129.767 14.228V29.2466C129.767 29.6147 129.68 29.8724 129.505 30.0196C129.356 30.1669 129.081 30.2405 128.682 30.2405H126.622C126.348 30.2405 126.136 30.1914 125.986 30.0932C125.861 29.9705 125.774 29.7865 125.724 29.5411L125.424 28.1055C124.65 29.038 123.689 29.7251 122.541 30.1669C121.418 30.584 120.045 30.7926 118.423 30.7926ZM120.22 27.4429C121.543 27.4429 122.703 27.0625 123.702 26.3018C124.725 25.541 125.237 24.5349 125.237 23.2833V16.1053C124.713 15.8354 124.176 15.6513 123.627 15.5532C123.103 15.4305 122.454 15.3691 121.68 15.3691C119.708 15.3691 118.123 15.9826 116.925 17.2096C115.727 18.4366 115.128 20.1299 115.128 22.2894C115.128 24.0563 115.54 25.357 116.363 26.1913C117.212 27.0257 118.497 27.4429 120.22 27.4429Z" fill="#02323D"/>
<path d="M0 6.02366C0 2.69715 2.74292 0.000488281 6.12649 0.000488281H30.4911C33.8746 0.000488281 36.6176 2.69715 36.6176 6.02365V29.9773C36.6176 33.3038 33.8746 36.0005 30.4911 36.0005H6.12649C2.74292 36.0005 0 33.3038 0 29.9773V6.02366Z" fill="#FF914D"/>
<path fill-rule="evenodd" clip-rule="evenodd" d="M19.0227 28.6407C22.7364 28.6407 25.747 25.6809 25.747 22.0298C25.747 18.3787 22.7364 15.4189 19.0227 15.4189C15.3089 15.4189 12.2983 18.3787 12.2983 22.0298C12.2983 25.6809 15.3089 28.6407 19.0227 28.6407ZM19.0227 31.5498C24.3706 31.5498 28.706 27.2875 28.706 22.0298C28.706 16.772 24.3706 12.5098 19.0227 12.5098C13.6747 12.5098 9.33936 16.772 9.33936 22.0298C9.33936 27.2875 13.6747 31.5498 19.0227 31.5498Z" fill="black"/>
<path fill-rule="evenodd" clip-rule="evenodd" d="M15.5981 16.8524C18.1354 16.8524 20.1924 14.8301 20.1924 12.3356C20.1924 9.84098 18.1354 7.81874 15.5981 7.81874C13.0607 7.81874 11.0038 9.84098 11.0038 12.3356C11.0038 14.8301 13.0607 16.8524 15.5981 16.8524ZM15.5981 18.4887C19.0547 18.4887 21.8568 15.7339 21.8568 12.3356C21.8568 8.93725 19.0547 6.18237 15.5981 6.18237C12.1415 6.18237 9.33936 8.93725 9.33936 12.3356C9.33936 15.7339 12.1415 18.4887 15.5981 18.4887Z" fill="black"/>
<path d="M9.33936 12.3354L11.7307 16.2247L11.1107 21.9135H9.33936V12.3354Z" fill="black"/>
</svg>
