<svg width="104" height="130" viewBox="0 0 104 130" fill="none" xmlns="http://www.w3.org/2000/svg">
<path d="M39.6475 127.849C45.9907 121.795 49.1623 112.568 54.0638 105.36C59.2536 97.5753 65.3084 90.6555 71.9399 84.0241C84.6262 71.3378 100.196 62.1114 103.367 43.082C105.674 29.2424 100.196 12.5196 86.3561 6.75309C72.5166 1.27492 63.5785 9.92466 54.6404 18.8627C49.4506 10.213 42.2425 2.42822 32.1511 0.40995C18.5999 -2.18497 6.2019 7.90639 2.16536 20.3043C-2.73616 35.0089 3.31865 50.5784 8.79682 64.1297C15.7166 81.7175 22.0598 101.035 31.5745 117.47C31.8628 117.758 31.8628 118.046 32.1511 118.335C31.5745 120.353 30.9978 122.371 30.7095 124.389C30.1328 129.003 36.7643 130.733 39.6475 127.849ZM14.8516 43.6586C12.2567 32.9906 11.9684 14.8262 26.3846 12.8079C37.0526 11.3663 43.3958 24.0526 47.7206 32.1256C49.7389 35.8739 54.6404 36.1622 57.5237 33.2789C65.5968 26.0708 77.1298 8.48304 87.7978 23.4759C97.8891 37.8921 86.6445 54.0383 75.9765 63.553C65.8851 72.2028 56.6587 80.8525 48.5856 91.5205C45.1257 95.8454 41.3775 100.747 38.2059 105.937C31.8628 84.889 20.3298 64.9946 14.8516 43.6586Z" fill="#FF914D"/>
</svg>
