<svg width="127" height="161" viewBox="0 0 127 161" fill="none" xmlns="http://www.w3.org/2000/svg">
<path d="M74.7628 30.1194C66.4014 15.7032 54.8684 1.57531 36.704 0.710334C18.8279 -0.15464 4.41163 15.1266 0.95174 31.8494C-3.37313 53.4737 7.87153 74.2331 17.9629 92.3976C23.7294 103.066 30.3608 113.157 37.2806 123.248C44.4888 133.628 51.4085 144.873 47.9486 157.847C47.372 160.442 50.8319 161.884 52.2735 159.866C60.9232 146.603 54.2918 131.61 47.6603 118.923C38.1456 101.047 26.901 84.3245 19.4045 65.5834C13.3497 50.3022 9.02483 29.2545 24.8827 18.0098C43.6238 4.45856 59.4816 29.8311 66.6897 43.6707C68.708 47.7072 74.1862 47.9956 77.3577 45.1123C85.1425 37.9042 101 29.8311 109.073 40.7875C116.57 50.8788 109.65 63.5651 102.442 71.3499C95.5222 78.558 87.4491 83.7478 79.9527 89.8026C70.7263 97.2991 62.6532 105.66 56.3101 115.752C50.8319 124.402 64.6715 132.475 70.1496 123.825C86.0075 99.3173 124.066 86.3427 126.085 54.0504C126.95 41.3641 120.895 28.3895 108.497 23.7763C96.6755 19.1631 84.5659 23.1997 74.7628 30.1194Z" fill="#FF914D"/>
</svg>
