<svg width="199" height="273" viewBox="0 0 199 273" fill="none" xmlns="http://www.w3.org/2000/svg">
<path d="M56.8486 113.298C59.0714 111.831 60.8756 109.812 62.0852 107.44C62.5452 106.609 62.6761 105.637 62.4521 104.714C62.2281 103.792 61.6654 102.988 60.8758 102.461C60.4463 102.191 59.9655 102.014 59.4638 101.939C58.9621 101.864 58.4504 101.895 57.961 102.028C57.4716 102.161 57.0152 102.395 56.6205 102.713C56.2258 103.032 55.9015 103.429 55.668 103.879C55.0436 105.177 54.0962 106.293 52.9168 107.119C52.3964 107.459 51.9701 107.924 51.6776 108.472C51.3851 109.021 51.2357 109.634 51.2434 110.255C51.2525 110.905 51.4344 111.54 51.7704 112.096C52.1064 112.651 52.5843 113.108 53.1551 113.418C53.7259 113.727 54.369 113.88 55.0181 113.859C55.6672 113.838 56.2991 113.644 56.8486 113.298Z" fill="#17505C"/>
<path d="M117.343 103.374C118.238 103.374 119.103 103.046 119.774 102.453C120.444 101.859 120.875 101.041 120.984 100.152C121.093 99.2632 120.873 98.3651 120.365 97.6272C119.858 96.8893 119.098 96.3624 118.229 96.1459C117.896 96.0422 117.598 95.8487 117.368 95.5866C117.138 95.3244 116.985 95.0039 116.925 94.6602C116.871 94.1808 116.723 93.7168 116.489 93.2948C116.255 92.8729 115.94 92.5012 115.562 92.2011C115.184 91.9011 114.751 91.6785 114.287 91.5462C113.823 91.4138 113.337 91.3744 112.858 91.43C112.378 91.4856 111.915 91.6352 111.493 91.8702C111.072 92.1053 110.701 92.4212 110.402 92.7998C110.103 93.1784 109.881 93.6123 109.75 94.0766C109.619 94.541 109.581 95.0266 109.638 95.5058C109.872 97.3302 110.645 99.0431 111.859 100.425C113.073 101.807 114.672 102.796 116.45 103.264C116.742 103.337 117.042 103.374 117.343 103.374Z" fill="#17505C"/>
<path d="M142.196 119.689C143.088 119.691 143.974 119.527 144.806 119.204C145.693 118.841 146.403 118.144 146.783 117.264C147.163 116.384 147.184 115.39 146.84 114.494C146.497 113.599 145.816 112.874 144.944 112.475C144.073 112.075 143.079 112.033 142.177 112.356C142.09 112.343 142.007 112.307 141.939 112.252C141.761 111.804 141.498 111.395 141.162 111.049C140.827 110.703 140.427 110.427 139.985 110.236C139.543 110.044 139.067 109.942 138.585 109.934C138.104 109.927 137.625 110.014 137.177 110.191C136.729 110.369 136.321 110.633 135.975 110.968C135.629 111.303 135.352 111.703 135.161 112.146C134.97 112.588 134.867 113.063 134.86 113.545C134.852 114.027 134.94 114.505 135.117 114.953C135.854 116.787 137.287 118.255 139.102 119.038C140.077 119.466 141.131 119.688 142.196 119.689Z" fill="#17505C"/>
<path d="M120.237 126.019C120.76 126.02 121.283 125.965 121.795 125.857C122.742 125.65 123.568 125.077 124.094 124.263C124.619 123.449 124.801 122.461 124.6 121.513C124.4 120.565 123.832 119.735 123.021 119.204C122.211 118.674 121.223 118.485 120.274 118.68C120.081 118.685 119.892 118.622 119.741 118.502C119.576 118.403 119.45 118.249 119.384 118.068C119.316 117.586 119.153 117.123 118.904 116.704C118.656 116.286 118.326 115.922 117.935 115.632C117.544 115.343 117.099 115.134 116.627 115.018C116.154 114.902 115.663 114.881 115.182 114.957C114.702 115.032 114.241 115.203 113.827 115.458C113.413 115.713 113.053 116.049 112.77 116.444C112.487 116.84 112.285 117.288 112.176 117.762C112.068 118.236 112.054 118.728 112.138 119.207C112.321 120.283 112.72 121.311 113.312 122.228C113.904 123.146 114.675 123.933 115.58 124.544C116.948 125.495 118.571 126.009 120.237 126.019Z" fill="#17505C"/>
<path d="M126.943 90.0718C127.838 90.0717 128.703 89.744 129.373 89.1506C130.044 88.5571 130.474 87.7389 130.583 86.85C130.692 85.9612 130.473 85.0632 129.965 84.3252C129.458 83.5873 128.698 83.0604 127.829 82.8439L125.351 82.224C124.883 82.1072 124.397 82.0836 123.921 82.1545C123.445 82.2254 122.987 82.3895 122.574 82.6373C122.161 82.8852 121.8 83.212 121.514 83.5991C121.227 83.9862 121.019 84.426 120.902 84.8933C120.785 85.3607 120.762 85.8465 120.833 86.323C120.904 86.7994 121.068 87.2573 121.316 87.6704C121.563 88.0835 121.89 88.4437 122.277 88.7304C122.664 89.0172 123.104 89.225 123.572 89.3418L126.05 89.9611C126.342 90.0346 126.642 90.0718 126.943 90.0718Z" fill="#17505C"/>
<path d="M150.679 107.363C151.278 107.363 151.869 107.216 152.398 106.935C152.928 106.654 153.38 106.247 153.716 105.751C154.052 105.254 154.262 104.683 154.326 104.087C154.39 103.491 154.307 102.888 154.084 102.331L153.464 100.783C153.289 100.33 153.026 99.9171 152.69 99.567C152.354 99.2169 151.952 98.9369 151.507 98.7432C151.062 98.5495 150.583 98.446 150.098 98.4387C149.613 98.4313 149.132 98.5202 148.681 98.7003C148.231 98.8804 147.82 99.1481 147.474 99.4878C147.128 99.8275 146.852 100.233 146.663 100.68C146.475 101.126 146.376 101.606 146.374 102.092C146.372 102.577 146.467 103.057 146.652 103.506L147.271 105.056C147.543 105.738 148.014 106.321 148.621 106.733C149.229 107.144 149.945 107.363 150.679 107.363Z" fill="#17505C"/>
<path d="M2.02972 85.8935C-1.62332 74.8739 0.616211 63.1756 1.38901 59.8551C1.41104 59.732 1.40581 59.6055 1.3737 59.4846C-2.56424 42.3303 5.297 24.784 22.4024 12.5501C31.4261 6.10108 41.8997 1.97448 52.8972 0.535141C64.5876 -0.89673 75.4061 1.21928 84.182 6.65697C98.3827 15.4555 106.83 26.1798 113.618 34.7967C115.758 37.5162 117.659 39.922 119.512 41.9946C137.123 39.9996 154.523 48.9944 166.349 66.3224C181.912 89.1272 172.734 110.495 159.238 122.977C192.183 175.996 197.409 262.958 198.225 288.698C198.272 290.172 198.022 291.64 197.49 293.016C196.959 294.391 196.156 295.645 195.13 296.704C194.104 297.763 192.875 298.605 191.517 299.179C190.159 299.754 188.7 300.05 187.225 300.049H50.9035C49.3385 300.05 47.7914 299.716 46.3655 299.071C44.9396 298.426 43.6678 297.484 42.6349 296.308C41.6021 295.133 40.832 293.75 40.376 292.253C39.92 290.756 39.7887 289.179 39.9908 287.627C40.7478 281.822 41.8378 273.219 43.2361 262.013C42.6832 262.08 42.1269 262.114 41.5701 262.116C39.6381 262.118 37.728 261.707 35.9685 260.909C30.0594 258.237 25.7706 251.638 23.2205 241.297C22.9841 240.316 22.4754 239.423 21.7531 238.719C20.708 237.763 19.9015 236.576 19.3981 235.252C18.8947 233.928 18.7085 232.505 18.8545 231.096C19.5778 224.632 23.6576 219.975 30.3211 217.569C30.1298 216.459 29.9494 215.246 29.78 213.962C16.6254 201.78 9.31381 187.262 8.0464 170.789C6.95386 156.593 10.4357 143.643 12.9785 134.19C14.1676 129.767 15.1948 125.947 15.3018 123.575C15.6429 115.954 13.0078 110.573 9.36029 103.127C6.50702 97.5658 4.05717 91.8063 2.02972 85.8935ZM160.286 70.4615C149.548 54.7262 134.461 47.0783 118.895 49.4804C112.769 50.402 106.995 52.9231 102.155 56.7893C97.3157 60.6556 93.5815 65.7301 91.3297 71.5008C94.0431 73.3643 96.1108 76.3357 97.303 80.2388C97.6007 81.1415 97.5488 82.1231 97.1576 82.9894C96.7663 83.8557 96.0642 84.5437 95.19 84.9171C94.7161 85.102 94.2089 85.1863 93.7006 85.1648C93.1923 85.1434 92.694 85.0165 92.2373 84.7923C91.7806 84.5682 91.3755 84.2516 91.0476 83.8626C90.7197 83.4736 90.4762 83.0207 90.3326 82.5327C89.1948 78.6638 87.0812 76.6634 84.0511 76.5937C80.5509 76.5087 76.5678 79.0894 75.5198 82.1127C74.4102 85.3133 74.7091 88.5555 76.3183 90.7852C77.6463 92.6261 79.7739 93.5976 82.4756 93.5976H82.6768C83.6412 93.5975 84.567 93.9773 85.2535 94.6547C85.9401 95.3321 86.3322 96.2526 86.3451 97.217C85.812 101.897 86.1996 106.96 86.8642 109.59C91.8164 129.182 110.144 135.2 111.438 135.601C132.963 141.387 137.098 136.303 143.349 128.612C145.655 125.775 148.268 122.559 151.933 119.598C164.986 109.054 174.035 90.6055 160.286 70.4615ZM68.5879 79.7179C69.4344 77.3981 70.8543 75.3304 72.7154 73.7073C65.0871 68.044 56.8652 69.1867 47.5054 70.4951C39.4112 71.6262 30.4996 72.8685 21.2457 69.6055C21.3031 74.2013 23.6821 76.9893 26.9267 80.764C27.9606 81.966 29.0293 83.2095 30.0723 84.587C34.4951 90.4276 34.7494 98.877 32.2121 103.103C32.0381 103.367 31.9743 103.689 32.0342 103.999C32.091 104.183 32.186 104.352 32.3131 104.496C32.4402 104.641 32.5965 104.756 32.7716 104.836C33.578 105.284 34.9725 105.897 36.4491 106.547C41.2179 108.644 44.7389 110.295 46.5584 112.466C47.2659 113.361 47.9206 114.297 48.5191 115.268C50.5941 118.468 53.4371 122.849 57.6465 123.624C59.7213 124.004 61.8637 123.657 63.7121 122.64C68.8795 119.868 74.2249 116.603 80.576 114.203C79.1458 109.75 78.3847 105.109 78.3176 100.432C75.1159 99.6545 72.2973 97.7589 70.3695 95.087C67.3621 90.9173 66.6957 85.1715 68.5879 79.7148V79.7179ZM142.052 155.914C138.96 156.144 111.311 157.818 92.665 145.822C91.5492 145.105 90.2913 144.638 88.9778 144.454C87.6644 144.269 86.3265 144.371 85.0563 144.753C83.8272 145.115 82.691 145.738 81.7258 146.58C80.7607 147.423 79.9894 148.464 79.4651 149.633C75.0662 159.522 83.1261 164.838 86.7957 166.665C105.897 176.174 125.643 176.998 147.158 169.181C154.891 166.372 157.918 162.685 157.602 156.455C157.322 150.91 155.974 149.302 155.568 148.94C155.482 148.851 155.377 148.782 155.261 148.738C155.146 148.695 155.022 148.677 154.898 148.688C153.186 148.76 152.311 147.558 151.356 146.997C150.94 146.837 150.484 146.816 150.054 146.936C149.737 147.079 148.906 148.048 148.495 150.461C147.99 153.427 145.339 155.669 142.052 155.914ZM147.407 140.091C147.152 138.835 146.825 137.595 146.429 136.376C142.126 141.298 137.044 145.377 126.729 145.377C122.486 145.377 117.342 144.675 111.021 143.07C110.704 143.865 110.398 144.685 110.094 145.546C124.183 149.599 138.83 148.786 141.379 148.607C142.25 144.336 144.422 141.274 147.407 140.091ZM83.5278 173.236C74.9965 168.989 67.0582 159.48 72.7625 146.655C73.7167 144.519 75.1221 142.615 76.8819 141.074C78.6418 139.534 80.7144 138.392 82.9574 137.728C85.2413 137.043 87.6466 136.86 90.0078 137.193C92.369 137.526 94.6301 138.367 96.6354 139.657C98.717 140.985 100.905 142.137 103.177 143.104C103.494 142.207 103.814 141.345 104.146 140.509C100.234 138.599 96.5881 136.186 93.3021 133.331C89.2894 129.844 85.9486 125.652 83.4446 120.962C43.6433 135.88 36.4179 170.379 35.7062 189.924C35.5945 198.639 36.1875 207.349 37.4793 215.969C40.0201 215.696 42.5788 215.631 45.1302 215.774C46.4208 215.843 52.5231 213.838 55.4791 213.12C64.8908 210.835 82.4096 206.582 91.8567 191.927C93.0991 189.999 94.2253 184.237 95.308 178.068C91.2675 176.75 87.33 175.135 83.5278 173.236ZM48.1461 291.467C48.4886 291.862 48.9125 292.178 49.3887 292.394C49.8649 292.609 50.3821 292.719 50.9047 292.716H187.223C187.715 292.717 188.201 292.619 188.654 292.428C189.107 292.236 189.517 291.956 189.859 291.603C190.202 291.25 190.469 290.832 190.647 290.374C190.824 289.915 190.907 289.426 190.891 288.934C190.096 263.834 185.054 179.482 153.666 127.939C153 128.616 152.365 129.299 151.759 129.991C153.444 133.587 154.562 137.423 155.074 141.362C157.058 141.388 158.966 142.133 160.442 143.461C163.156 145.871 164.624 150.002 164.931 156.09C165.563 168.591 156.299 173.468 151.383 175.433C147.505 187.549 141.439 198.853 133.485 208.783C135.418 210.1 137.166 211.671 138.682 213.454C143.325 218.907 147.675 225.731 151.171 231.214C153.52 234.899 155.753 238.402 157.351 240.329C157.599 240.366 157.878 240.402 158.115 240.434C161.708 240.913 169.181 241.909 171.321 248.329C173.222 254.044 171.595 259.568 166.858 263.487C163.271 266.373 158.819 267.973 154.216 268.029C152.157 268.077 150.118 267.624 148.274 266.707C145.145 265.301 141.21 264.247 136.664 263.027C127.284 260.513 115.609 257.384 105.208 249.165C104.415 248.557 103.494 248.139 102.515 247.941C101.536 247.744 100.525 247.773 99.5584 248.025C96.5437 248.785 82.8149 251.808 74.0501 251.808C69.2504 251.83 64.4629 251.324 59.7735 250.301C57.3908 253.683 54.4235 256.613 51.0111 258.953C49.372 272.123 48.1113 282.092 47.2651 288.576C47.1948 289.092 47.237 289.618 47.3889 290.117C47.5408 290.615 47.7987 291.075 48.1449 291.464L48.1461 291.467ZM133.096 218.205C131.819 216.703 130.312 215.411 128.633 214.377C119.367 224.231 107.746 232.052 94.2118 237.615C94.2762 238.964 94.4286 240.307 94.6679 241.636C95.6461 241.418 96.7216 241.167 97.7573 240.906C99.8141 240.382 101.964 240.335 104.042 240.767C106.12 241.2 108.071 242.102 109.748 243.404C118.963 250.685 129.373 253.474 138.555 255.937C143.268 257.2 147.721 258.394 151.421 260.077C151.514 260.119 151.604 260.165 151.693 260.215C153.516 261.236 158.724 260.683 162.174 257.831C164.586 255.837 165.299 253.485 164.353 250.643C163.665 248.574 159.421 248.008 157.139 247.705C155.183 247.444 153.771 247.255 152.647 246.084C150.539 243.88 148.085 240.031 144.978 235.156C141.434 229.585 137.411 223.273 133.096 218.205ZM87.5018 243.19C87.3205 242.226 87.176 241.257 87.0684 240.284C82.0575 241.967 76.9483 243.343 71.7696 244.402C77.0422 244.574 82.3178 244.168 87.5018 243.19ZM26.9915 231.471C26.5097 235.298 29.7697 237.202 30.3456 239.541C32.2739 247.359 35.3443 252.574 38.9931 254.224C40.9495 255.109 43.1077 254.951 45.4077 253.754C49.8862 251.424 53.2207 247 54.8097 244.571C56.3186 242.265 58.7764 239.133 62.6935 238.556C89.3238 234.63 111.086 223.638 125.627 206.767C132.865 198.346 138.6 188.741 142.581 178.375C134.9 180.631 126.941 181.8 118.936 181.847C113.379 181.846 107.84 181.231 102.418 180.012C101.023 187.865 99.8922 193.007 98.0281 195.898C86.9938 213.017 67.6219 217.719 57.2149 220.246C54.957 220.796 47.2431 223.223 44.7554 223.098C33.3328 222.147 27.6023 226.605 26.9897 231.471H26.9915ZM22.6317 123.904C22.4899 127.077 21.4193 131.057 20.0639 136.095C15.7028 152.312 8.68896 178.427 28.6728 202.2C28.3757 197.465 28.2571 192.907 28.3757 189.655C28.9565 173.711 33.5113 148.67 53.8963 130.167C48.0618 128.027 44.863 122.42 42.3642 119.256C40.9764 117.499 35.6341 114.199 33.4991 113.26C31.7872 112.51 30.3144 111.861 29.2072 111.243C28.2002 110.652 27.3213 109.866 26.622 108.931C25.9228 107.996 25.4174 106.931 25.1353 105.798C24.8226 104.721 24.7313 103.592 24.8668 102.479C25.0024 101.366 25.362 100.292 25.924 99.3221C26.7494 97.9476 26.9634 92.6267 24.2256 89.0116C23.3195 87.8151 22.326 86.6596 21.3661 85.5426C17.3426 80.8636 12.8324 75.6094 14.1456 66.1683C13.4847 65.7568 12.8226 65.3234 12.1598 64.8544C11.3657 64.2922 10.8274 63.4376 10.6634 62.4786C10.4994 61.5195 10.7231 60.5346 11.2852 59.7405C11.8474 58.9463 12.702 58.4081 13.6611 58.244C14.6201 58.08 15.6051 58.3037 16.3992 58.8659C26.503 66.0191 36.2125 64.6618 46.4917 63.2245C57.5273 61.6825 68.9266 60.0893 79.6174 69.8917C81.114 69.452 82.6682 69.2399 84.2278 69.2625C84.2602 69.2625 84.289 69.268 84.3232 69.2686C86.5948 63.2384 90.2092 57.8044 94.8927 53.3785C99.5761 48.9526 105.206 45.6509 111.355 43.7236C110.208 42.3174 109.047 40.8501 107.854 39.3357C101.423 31.1706 93.4182 21.0099 80.3174 12.8919C65.8752 3.94363 43.8175 6.25651 26.6754 18.5167C12.0596 28.9714 5.27681 43.671 8.5294 57.84C8.81432 59.048 8.81787 60.3054 8.53979 61.515C7.87643 64.3659 5.94812 74.3829 8.99834 83.5861C10.9241 89.1832 13.2472 94.6356 15.9498 99.9016C19.76 107.685 23.0548 114.409 22.6299 123.904H22.6317Z" fill="#17505C"/>
<path d="M40.1954 89.9819C40.3384 89.9821 40.4813 89.9739 40.6234 89.9575C43.0227 89.6578 45.2403 88.5241 46.8882 86.7546C48.536 84.9851 49.5093 82.6925 49.6377 80.278C49.6726 79.7975 49.6126 79.3148 49.461 78.8575C49.3093 78.4003 49.0692 77.9773 48.7541 77.6129C48.439 77.2484 48.0553 76.9496 47.6247 76.7335C47.1942 76.5173 46.7253 76.3881 46.2448 76.3532C45.2744 76.2826 44.3157 76.6005 43.5797 77.2368C42.8436 77.8731 42.3905 78.7757 42.32 79.7461C42.3237 80.4584 42.0682 81.1477 41.6011 81.6855C41.134 82.2234 40.4873 82.573 39.7815 82.6691C38.851 82.7757 37.9965 83.2342 37.3932 83.9506C36.7899 84.667 36.4834 85.587 36.5367 86.5221C36.5899 87.4572 36.9988 88.3365 37.6795 88.9798C38.3603 89.6231 39.2613 89.9816 40.1978 89.9819H40.1954Z" fill="#17505C"/>
<path d="M27.1398 75.8002C27.9872 75.8015 28.8086 75.5077 29.463 74.9693C30.1356 74.4319 32.5493 72.8997 34.5522 73.0514C35.0325 73.0888 35.5155 73.0312 35.9735 72.882C36.4316 72.7328 36.8557 72.4948 37.2218 72.1816C37.9611 71.5492 38.4189 70.6489 38.4945 69.6789C38.57 68.709 38.2572 67.7487 37.6247 67.0094C36.9923 66.2701 36.092 65.8123 35.1221 65.7367C29.8152 65.3265 25.3093 68.8872 24.8116 69.295C24.2265 69.7747 23.804 70.4235 23.6021 71.1527C23.4001 71.8818 23.4286 72.6556 23.6835 73.3679C23.9385 74.0803 24.4074 74.6964 25.0262 75.1318C25.6449 75.5672 26.3832 75.8007 27.1398 75.8002Z" fill="#17505C"/>
<path d="M142.283 81.3729C142.962 80.6761 143.89 80.2775 144.863 80.2648C145.835 80.252 146.773 80.6262 147.47 81.305C147.814 81.6395 148.252 81.86 148.725 81.9366C149.198 82.0131 149.684 81.942 150.115 81.7328C150.546 81.5237 150.903 81.1867 151.136 80.7677C151.369 80.3488 151.467 79.8682 151.417 79.3914C151.356 78.8191 150.081 75.5396 149.845 74.5064C149.441 72.6455 149.487 70.7147 149.981 68.8755C150.476 67.0363 151.403 65.3422 152.686 63.9348C152.525 63.6799 149.238 56.4191 149.117 56.1219C148.121 53.6929 147.212 51.0474 147.298 48.1378C147.411 44.2934 149.377 40.9418 152.419 39.3907C156.437 37.3443 161.854 38.97 164.497 43.0131C166.268 45.8965 166.833 49.3611 166.07 52.6578C166.047 52.7646 166.054 52.8755 166.088 52.979C166.123 53.0825 166.185 53.1747 166.268 53.2463C166.35 53.3178 166.45 53.3659 166.558 53.3856C166.665 53.4053 166.776 53.396 166.878 53.3584C170.498 52.0586 173.858 52.0647 176.655 53.3872C178.332 54.2108 179.751 55.4772 180.759 57.0492C181.767 58.6213 182.326 60.4392 182.376 62.3061C182.386 64.1425 181.915 65.9495 181.009 67.5467C180.102 69.1438 178.793 70.4752 177.211 71.4078C175.408 72.4304 173.366 72.9552 171.294 72.9284C170.014 72.9232 168.74 72.7543 167.503 72.4258C164.913 71.6457 162.438 70.5265 160.141 69.0974C159.774 68.8877 159.257 68.6407 158.674 68.3546C158.014 68.8866 157.509 69.5873 157.215 70.3824C156.92 71.1776 156.846 72.0376 157 72.8715C157.159 73.4678 157.359 74.0524 157.598 74.6213C158.153 75.8973 158.529 77.2436 158.716 78.6222C158.902 80.5964 158.486 82.5806 157.523 84.3139C156.56 86.0472 155.095 87.4485 153.321 88.3335C152.022 88.958 150.599 89.2799 149.159 89.2751C146.624 89.286 144.185 88.3128 142.354 86.5605C142.008 86.2245 141.733 85.8238 141.542 85.3812C141.352 84.9387 141.25 84.463 141.244 83.9812C141.237 83.4995 141.326 83.0212 141.504 82.5737C141.682 82.1261 141.947 81.7181 142.283 81.3729ZM164.812 63.3082C166.238 64.1671 167.766 64.8448 169.359 65.3258C170.728 65.7725 172.217 65.6796 173.52 65.0659C174.433 64.5346 175.225 63.4335 175.041 62.4284C174.348 58.6573 169.477 60.1883 168.651 60.5392C167.754 60.9213 165.189 62.2609 164.831 62.4443C164.751 62.4842 164.684 62.545 164.637 62.6202C164.59 62.6953 164.564 62.7819 164.562 62.8707C164.56 62.9595 164.582 63.0472 164.626 63.1242C164.67 63.2013 164.735 63.2649 164.812 63.3082ZM158.503 46.9768C156.592 45.0283 154.843 46.7475 154.631 48.3518C154.338 50.5766 155.311 52.8547 156.39 54.9236C156.438 55.0152 156.51 55.092 156.598 55.146C156.686 55.2 156.788 55.229 156.891 55.2301C156.995 55.2312 157.096 55.2042 157.186 55.1521C157.275 55.0999 157.349 55.0246 157.399 54.934C157.916 54.0288 158.339 53.0729 158.66 52.0812C159.262 50.1297 159.517 48.0137 158.503 46.9786V46.9768Z" fill="#17505C"/>
</svg>
