<svg width="79" height="30" viewBox="0 0 79 30" fill="none" xmlns="http://www.w3.org/2000/svg">
<g clip-path="url(#clip0_282_5390)">
<path d="M77.3503 27.6087C77.3503 27.4616 77.2862 27.3145 77.158 27.2515C77.0298 27.1884 76.8802 27.1674 76.752 27.1674H76.0254V28.8275H76.2391V28.071H76.6238L77.0939 28.8275H77.3503L76.8375 28.071C77.1153 28.05 77.3503 27.9239 77.3503 27.6087ZM76.5383 27.9029H76.2177V27.3145H76.6879C76.9016 27.3145 77.1153 27.3565 77.1153 27.6087C77.1366 27.9449 76.7733 27.9029 76.5383 27.9029ZM76.581 26.5159C75.7476 26.5159 75.0638 27.1674 75.0638 27.987C75.0638 28.8065 75.7262 29.479 76.581 29.479C77.4144 29.479 78.0769 28.8275 78.0769 27.987C78.0769 27.1884 77.4144 26.5159 76.581 26.5159ZM76.581 29.3109C75.8544 29.3109 75.2561 28.7225 75.2561 28.008C75.2561 27.2935 75.8544 26.7051 76.581 26.7051C77.3076 26.7051 77.9059 27.2935 77.9059 28.008C77.9059 28.7225 77.3076 29.3109 76.581 29.3109ZM9.56512 19.9384L6.87252 1.00435H0.0769043L5.73992 29.0167H13.3903L19.0533 1.00435H12.2577L9.56512 19.9384ZM49.7405 17.1225L46.2358 1.00435H38.0725V29.0167H44.4835V12.3522L48.3514 28.9957H56.1942V1.00435H49.7618L49.7405 17.1225ZM32.1103 1.13043C30.358 0.457971 28.0714 0.542029 27.815 0.542029C27.5372 0.542029 25.272 0.457971 23.5196 1.13043C20.1005 2.41232 19.3953 5.33333 19.3953 6.97246V23.0486C19.3953 24.6667 20.1005 27.5877 23.4983 28.8906C25.2506 29.563 27.5158 29.5 27.7936 29.5C28.0714 29.5 30.3366 29.5841 32.089 28.8906C35.4868 27.5877 36.192 24.6667 36.192 23.0486V6.97246C36.2133 5.33333 35.5081 2.41232 32.1103 1.13043ZM29.4818 21.6826C29.4818 22.6072 28.7339 23.3217 27.7936 23.3217C26.8747 23.3217 26.1268 22.5862 26.1268 21.6826V8.33841C26.1268 7.41377 26.8747 6.67826 27.7936 6.67826C28.7339 6.67826 29.4818 7.41377 29.4818 8.33841V21.6826ZM72.5635 14.6848C70.7257 13.1297 67.3492 11.8899 66.4944 11.4065C64.678 10.4399 64.3574 9.51522 64.3574 8.56957C64.3574 7.98116 64.8062 6.63623 66.3235 6.63623C67.969 6.63623 68.1827 7.77102 68.1827 8.52754V10.9442H74.7859L74.8073 8.33841C74.8073 5.24928 73.9311 0.5 66.4944 0.5C58.6731 0.5 57.7542 5.24928 57.7542 8.35942C57.7542 10.9022 58.1174 13.2138 60.0835 14.9159C61.8999 16.513 65.2764 17.5848 66.1739 18.0681C67.969 19.0558 68.2681 20.0225 68.2681 20.9261C68.2681 22.4391 67.8194 23.3638 66.4944 23.3638C64.9772 23.3638 64.4429 22.1239 64.4429 21.3674V18.4254H57.861C57.861 19.0768 57.8396 23.5739 58.1175 24.4565C58.4166 25.3391 59.0791 29.5 66.4731 29.5C73.8029 29.5 75.1065 25.0029 75.1065 21.2623C75.0851 18.6986 74.9355 16.7022 72.5635 14.6848Z" fill="#17505C"/>
</g>
<defs>
<clipPath id="clip0_282_5390">
<rect width="78" height="29" fill="white" transform="translate(0.0769043 0.5)"/>
</clipPath>
</defs>
</svg>
