<svg width="126" height="30" viewBox="0 0 126 30" fill="none" xmlns="http://www.w3.org/2000/svg">
<g clip-path="url(#clip0_282_5407)">
<path d="M16.3727 13.8568H9.3522L10.2769 9.94226H17.8453L18.8727 5.61201H5.58507L0.276855 27.7483H6.03028L8.3248 18.2564C8.3248 18.2564 10.4481 18.2564 12.5029 18.2564C13.5303 18.2564 14.5577 18.2564 15.3111 18.2564L16.3727 13.8568ZM87.6056 5.64665H81.8522L76.5097 27.7829H89.2152L90.2769 23.2448H83.3248L87.6056 5.64665ZM97.3316 15.1039H102.092L102.88 11.8822H94.2152L90.4138 27.7829H99.6262L100.448 24.4919H95.1056L95.8933 21.1663H100.688L101.441 18.0485H96.681L97.3316 15.1039ZM121.339 11.709C120.893 11.6397 120.448 11.6051 120.003 11.6051C118.599 11.6051 117.263 11.9861 116.167 12.8868C114.934 13.8915 114.318 15.4157 114.386 17.321C114.489 19.642 116.955 20.8199 118.53 22.2748C119.284 22.933 118.873 24.0762 118.496 24.6651C118.222 25.0462 117.708 25.3233 117.229 25.3233C117.023 25.3233 116.784 25.2887 116.612 25.1848C115.688 24.7344 116.27 23.1062 116.407 22.448H112.88C112.571 23.7298 112.16 25.3233 112.674 26.3626C113.256 27.5058 114.9 28.0947 116.647 28.0947C118.222 28.0947 119.832 27.6097 120.791 26.6744C122.126 25.358 122.88 23.6259 122.777 21.5127C122.606 18.3949 117.537 17.9446 118.085 15.6582C118.291 14.8268 119.01 14.4457 119.626 14.4457C120.106 14.4457 120.517 14.6536 120.619 15.0693C120.688 15.4157 120.654 15.8314 120.517 16.6975H124.112C124.215 16.0393 124.249 15.8661 124.284 15.1386C124.284 13.5797 123.256 12.0208 121.339 11.709ZM107.195 15.5889C107.4 14.7575 108.085 14.3764 108.702 14.3764C109.181 14.3764 109.592 14.5843 109.695 15C109.797 15.3464 109.729 15.7621 109.592 16.6282H113.188C113.291 15.97 113.291 15.7968 113.359 15.0693C113.462 13.5104 112.434 11.9515 110.517 11.6397C110.071 11.5704 109.626 11.5358 109.181 11.5358C107.811 11.5358 106.441 11.9169 105.345 12.8176C104.078 13.8222 103.462 15.3464 103.53 17.2517C103.633 19.5727 106.099 20.7506 107.708 22.2055C108.462 22.8637 108.051 24.0069 107.674 24.5958C107.4 24.9769 106.886 25.254 106.373 25.254C106.167 25.254 105.928 25.2194 105.756 25.1155C104.832 24.6651 105.414 23.037 105.551 22.3788H101.989C101.681 23.6605 101.27 25.254 101.784 26.2933C102.366 27.4365 104.01 28.0254 105.756 28.0254C107.332 28.0254 108.975 27.5404 109.934 26.6051C111.27 25.2887 111.989 23.5566 111.886 21.4434C111.715 18.3256 106.647 17.8753 107.195 15.5889ZM75.4138 2.806L72.6056 0H66.0988L53.7358 16.4203V20.9931L58.2906 24.3533L57.9481 27.194L60.7563 30H74.3864L74.7289 27.2633L72.7426 25.254C72.7769 24.7691 72.7769 24.3533 72.8453 23.8337H75.4823L76.0988 18.6721L73.7358 16.2818L75.4138 2.806ZM23.496 11.5704C20.6878 11.5704 17.8111 12.5751 17.0234 15.8661L15.2769 23.037C14.4549 26.3972 15.9618 28.06 19.5234 28.06C22.6399 28.06 25.0714 27.194 25.9618 23.3834L27.7084 16.2125C28.496 13.0254 26.3043 11.5704 23.496 11.5704ZM23.7358 16.4203L22.0234 23.5912C21.6467 25.1501 20.7906 25.1848 20.3111 25.1848H20.2084C19.8316 25.1848 18.8043 25.0115 19.2495 23.1755L20.996 16.0046C21.2358 15 22.0577 14.6536 22.7426 14.6536C23.4275 14.6536 23.9755 15.4157 23.7358 16.4203ZM35.9618 11.5704C33.1536 11.5704 30.2769 12.5751 29.4892 15.8661L27.7426 23.037C26.9207 26.3972 28.4275 28.06 31.9892 28.06C35.1399 28.06 37.5371 27.194 38.4618 23.3834L40.1741 16.2125C40.9618 13.0254 38.7358 11.5704 35.9618 11.5704ZM36.133 16.4203L34.4207 23.5912C34.044 25.1501 33.1878 25.1848 32.7084 25.1848H32.6056C32.1947 25.1848 31.2015 25.0115 31.6467 23.1755L33.359 16.0046C33.5988 15 34.4549 14.6536 35.1399 14.6536C35.8248 14.6536 36.3727 15.4157 36.133 16.4203ZM48.9412 11.8822H43.0508L39.2495 27.7829H45.2426C49.0782 27.7829 50.0714 26.4319 50.5166 24.4919L52.4001 16.6975C53.2221 13.3025 51.8864 11.8822 48.9412 11.8822ZM48.8043 15.7968L47.0919 22.9677C46.681 24.5958 46.133 24.7691 45.9275 24.7691C45.8591 24.7691 45.8591 24.7691 45.8591 24.7691H43.7358L46.2358 14.515H47.9823C48.4275 14.515 48.9412 14.8614 48.8043 15.7968Z" fill="#17505C"/>
<path d="M66.3386 0.484863L54.2496 16.5934L54.2153 20.508H63.0509C62.64 23.9029 62.0236 24.8729 58.7016 24.8729L58.4962 26.6742H71.1674L71.4071 24.8382C69.3523 24.5611 69.2838 23.2793 69.6263 20.4733H72.2633L72.777 16.3163H70.14L72.0578 0.484863H66.3386Z" fill="#17505C"/>
<path d="M64.4892 9.87292L60.0714 15.9006H63.7357L64.4892 9.87292Z" fill="#EDEDED"/>
<path d="M71.2015 26.6745H58.5303L58.77 24.8384C62.0919 24.8384 62.7083 23.8685 63.1193 20.4735H54.2837L54.3179 16.559L66.407 0.450439H72.1262L70.1399 16.3165H72.8111L72.2974 20.4735H69.6604C69.3179 23.2795 69.3522 24.5613 71.4412 24.8384L71.2015 26.6745Z" fill="white"/>
<path d="M63.7357 15.9006H60.0714L64.4892 9.87292L63.7357 15.9006Z" fill="#17505C"/>
<path d="M124.866 25.4965C124.592 25.2194 124.284 25.0808 123.873 25.0808C123.496 25.0808 123.188 25.2194 122.914 25.4619C122.64 25.739 122.469 26.0508 122.469 26.4665C122.469 26.8476 122.606 27.194 122.88 27.4711C123.154 27.7482 123.462 27.8868 123.873 27.8868C124.25 27.8868 124.558 27.7482 124.832 27.5058C125.106 27.2286 125.243 26.8822 125.243 26.5011C125.277 26.1201 125.14 25.7737 124.866 25.4965ZM124.695 27.2979C124.489 27.5404 124.215 27.6443 123.907 27.6443C123.599 27.6443 123.325 27.5404 123.085 27.2979C122.88 27.09 122.743 26.8129 122.743 26.4665C122.743 26.1547 122.88 25.8776 123.085 25.6697C123.291 25.4272 123.565 25.3233 123.907 25.3233C124.215 25.3233 124.489 25.4272 124.695 25.6697C124.934 25.9122 125.037 26.1547 125.037 26.4665C125.037 26.8129 124.934 27.09 124.695 27.2979Z" fill="#17505C"/>
<path d="M124.523 26.9861C124.523 26.8129 124.489 26.709 124.386 26.6397C124.352 26.6051 124.249 26.5704 124.147 26.5704C124.249 26.5704 124.352 26.5358 124.421 26.4665C124.489 26.3972 124.523 26.3279 124.523 26.1894C124.523 26.0161 124.455 25.9122 124.318 25.8083C124.215 25.7737 124.147 25.739 124.01 25.739H123.256V27.2979H123.667V26.7436H123.77H123.838C123.907 26.7436 123.941 26.7436 123.975 26.7783C124.044 26.8129 124.078 26.8476 124.112 26.8822C124.112 26.9168 124.112 26.9861 124.147 27.0554C124.147 27.1593 124.147 27.2286 124.147 27.2633H124.523V27.2286V27.194V26.9861ZM124.078 26.3626C124.01 26.3972 123.941 26.4319 123.838 26.4319H123.701V25.9815H123.804C123.907 25.9815 123.975 25.9815 124.044 26.0161C124.112 26.0508 124.181 26.1201 124.181 26.1894C124.147 26.2933 124.112 26.3279 124.078 26.3626Z" fill="#17505C"/>
</g>
<defs>
<clipPath id="clip0_282_5407">
<rect width="125" height="30" fill="white" transform="translate(0.276855)"/>
</clipPath>
</defs>
</svg>
