<svg width="129" height="30" viewBox="0 0 129 30" fill="none" xmlns="http://www.w3.org/2000/svg">
<g clip-path="url(#clip0_282_5387)">
<path d="M45.5791 10.6706V12.3708H45.6311C46.2429 11.4605 47.2585 10.3885 49.5097 10.3885C51.261 10.3885 52.6045 11.2799 53.1803 12.6265H53.2323C53.7241 11.9457 54.2879 11.4304 54.9197 11.0655C55.6674 10.633 56.4991 10.3847 57.5467 10.3847C59.9178 10.3847 62.017 11.9269 62.017 15.8162V23.1924H58.4024V16.3315C58.4024 14.3605 57.6906 13.2208 56.2112 13.2208C55.1276 13.2208 54.3399 13.9054 54.04 14.748C53.936 15.0376 53.8881 15.4326 53.8881 15.7636V23.1961H50.2734V16.0532C50.2734 14.3794 49.5896 13.2171 48.1302 13.2171C46.9626 13.2171 46.2309 14.0822 45.931 14.8232C45.803 15.1392 45.7631 15.504 45.7631 15.8463V23.1924H42.1444V10.6706H45.5791ZM80.6741 10.6706V13.0328H80.7741C81.4379 11.2273 83.0133 10.3885 84.3968 10.3885C84.7446 10.3885 84.9366 10.4148 85.2165 10.4675V13.7474C84.8846 13.7023 84.5767 13.6572 84.1449 13.6572C82.5774 13.6572 81.4858 14.5148 81.2099 15.8576C81.15 16.1359 81.13 16.4369 81.13 16.7829V23.1961H77.4193V10.6706H80.6741ZM90.2546 6.52173V10.4637H93.3894V13.6534H90.2546V18.3589C90.2546 19.8823 90.6664 20.6196 91.89 20.6196C92.4658 20.6196 92.8896 20.5519 93.2575 20.4653L93.3055 23.1096C92.8136 23.2827 91.766 23.4707 90.7024 23.4707C89.4509 23.4707 88.4073 23.0607 87.7715 22.4251C87.0438 21.6991 86.7079 20.5105 86.7079 18.8178V6.52173H90.2546ZM39.6253 23.1924H36.0267V6.52173H39.6253V23.1924ZM30.0289 18.72C30.0289 18.9495 30.0089 19.1902 29.9409 19.3971C29.661 20.266 28.7054 20.9995 27.5138 20.9995C26.5182 20.9995 25.7265 20.4691 25.7265 19.3444C25.7265 17.6255 27.7417 17.1478 30.0329 17.159V18.72H30.0289ZM33.6236 15.7222C33.6236 12.8823 32.336 10.3885 27.9816 10.3885C25.7465 10.3885 23.9711 10.979 23.0035 11.5056L23.7112 13.785C24.5949 13.2584 26.0064 12.8259 27.3419 12.8259C29.5531 12.8221 29.9129 14.0032 29.9129 14.7593V14.9398C25.0947 14.9323 22.0518 16.5008 22.0518 19.698C22.0518 21.6502 23.5993 23.4783 26.2943 23.4783C27.9537 23.4783 29.3371 22.8576 30.1688 21.8608H30.2488C30.2488 21.8608 30.8006 24.0237 33.8315 23.1961C33.6715 22.2934 33.6196 21.3342 33.6196 20.1795V15.7222H33.6236ZM3.97453 6.52173C4.34639 8.28584 5.402 13.4089 5.402 13.4089C5.84584 15.5153 6.25368 17.7233 6.56157 19.4686H6.61755C6.91744 17.6142 7.38926 15.8576 7.89308 13.6835L9.67242 6.52173H13.611L15.2743 13.8678C15.7102 15.9103 16.0581 17.4863 16.334 19.3858H16.3859C16.6858 17.4675 17.0777 15.8275 17.5055 13.7286L19.1049 6.52173H22.8835L18.2013 23.1924C15.2184 23.8055 14.0748 22.6771 13.6669 20.8866C13.2591 19.0924 12.4594 15.6808 12.4594 15.6808C12.0475 13.8114 11.7277 12.4949 11.5037 10.5765H11.4478C11.1279 12.4761 10.792 13.8076 10.2962 15.677L8.33292 23.1961C5.28604 23.7679 4.23043 22.9216 3.64665 20.6233C3.14284 18.6561 0 6.52549 0 6.52549H3.97453V6.52173ZM71.4216 18.72C71.4216 18.9495 71.4016 19.1902 71.3336 19.3971C71.0537 20.266 70.0981 20.9995 68.9065 20.9995C67.9109 20.9995 67.1192 20.4691 67.1192 19.3444C67.1192 17.6255 69.1344 17.1478 71.4256 17.159V18.72H71.4216ZM75.0162 15.7222C75.0162 12.8823 73.7287 10.3885 69.3743 10.3885C67.1391 10.3885 65.3638 10.979 64.3962 11.5056L65.1039 13.785C65.9876 13.2584 67.399 12.8259 68.7346 12.8259C70.9417 12.8221 71.3056 14.0032 71.3056 14.7593V14.9398C66.4914 14.9323 63.4485 16.5008 63.4485 19.698C63.4485 21.6502 64.9999 23.4783 67.6909 23.4783C69.3463 23.4783 70.7338 22.8576 71.5615 21.8608H71.6455C71.6455 21.8608 72.1973 24.0237 75.2281 23.1961C75.0682 22.2934 75.0162 21.3342 75.0162 20.1795V15.7222Z" fill="#17505C"/>
<path d="M107.977 17.4509C108.332 18.0597 108.308 18.7392 107.929 19.0495L101.385 23.5703C100.703 23.9592 99.6831 23.4878 99.1052 22.502C98.5233 21.5122 98.6269 20.4085 99.3085 20.0196L106.554 16.6968C107.009 16.524 107.623 16.8421 107.977 17.4509ZM116.59 17.4509C116.949 16.8421 117.559 16.5279 118.013 16.6929L125.263 20.0157C125.945 20.4046 126.044 21.5082 125.466 22.498C124.885 23.4839 123.86 23.9513 123.183 23.5664L116.638 19.0456C116.264 18.7392 116.236 18.0558 116.59 17.4509ZM112.282 19.9018C112.995 19.9018 113.581 20.2632 113.661 20.7384L114.366 28.586C114.366 29.3637 113.446 30 112.286 30C111.13 30 110.205 29.3637 110.205 28.586L110.907 20.7384C110.986 20.2632 111.572 19.9018 112.282 19.9018ZM116.638 10.9544L123.183 6.42969C123.86 6.04085 124.885 6.50825 125.466 7.49804C126.044 8.48782 125.945 9.59152 125.263 9.98036L118.013 13.3071C117.559 13.4721 116.945 13.1579 116.59 12.5491C116.236 11.9403 116.264 11.2608 116.638 10.9544ZM106.554 13.3071L99.3085 9.98036C98.6309 9.59152 98.5273 8.48782 99.1052 7.49804C99.6831 6.50825 100.707 6.04085 101.385 6.42969L107.929 10.9544C108.308 11.2569 108.332 11.9403 107.977 12.5491C107.623 13.1579 107.009 13.4721 106.554 13.3071ZM110.907 9.26159L110.205 1.41398C110.205 0.636292 111.126 0 112.286 0C113.446 0 114.366 0.636292 114.366 1.41398L113.661 9.26159C113.581 9.73291 112.995 10.0982 112.282 10.0982C111.572 10.0982 110.986 9.73291 110.907 9.26159ZM127.236 23.5389V23.3425H127.415C127.475 23.3425 127.515 23.3818 127.515 23.4407C127.515 23.4957 127.475 23.5389 127.415 23.5389H127.236ZM127.089 23.8963C127.089 23.9159 127.105 23.9356 127.128 23.9356H127.204C127.224 23.9356 127.244 23.9159 127.244 23.8963V23.6724H127.368L127.467 23.9081C127.475 23.9238 127.487 23.9356 127.503 23.9356H127.595C127.623 23.9356 127.643 23.9081 127.631 23.8806C127.595 23.8099 127.559 23.7353 127.523 23.6606C127.583 23.641 127.674 23.5821 127.674 23.4407C127.674 23.2914 127.551 23.205 127.427 23.205H127.128C127.109 23.205 127.089 23.2247 127.089 23.2443V23.8963ZM126.766 23.5703C126.766 23.2522 127.029 22.9929 127.352 22.9929C127.674 22.9929 127.938 23.2482 127.938 23.5703C127.938 23.8885 127.678 24.1477 127.352 24.1477C127.025 24.1477 126.766 23.8885 126.766 23.5703ZM126.626 23.5703C126.626 23.9631 126.949 24.2852 127.352 24.2852C127.75 24.2852 128.077 23.9631 128.077 23.5703C128.077 23.1775 127.75 22.8555 127.352 22.8555C126.949 22.8555 126.626 23.1775 126.626 23.5703Z" fill="#17505C"/>
</g>
<defs>
<clipPath id="clip0_282_5387">
<rect width="128.077" height="30" fill="white"/>
</clipPath>
</defs>
</svg>
