<svg width="141" height="30" viewBox="0 0 141 30" fill="none" xmlns="http://www.w3.org/2000/svg">
<path fill-rule="evenodd" clip-rule="evenodd" d="M0.0769043 0.223877H140.277V29.776H0.0769043V0.223877Z" fill="#17505C"/>
<path fill-rule="evenodd" clip-rule="evenodd" d="M20.0147 11.1027C19.3767 10.5031 18.4995 9.98912 17.5425 9.98912C16.9045 9.98912 15.9475 10.4174 15.9475 11.274C15.9475 12.1306 16.9842 12.5589 17.6222 12.7302L18.5792 13.0729C20.573 13.6725 22.168 14.786 22.168 17.2702C22.168 18.812 21.7692 20.3539 20.6527 21.3818C19.5362 22.4097 18.021 22.838 16.5855 22.838C14.7513 22.838 12.9968 22.1527 11.5613 21.0392L13.1563 17.8698C14.1133 18.7264 15.15 19.4116 16.426 19.4116C17.3032 19.4116 18.2602 18.9833 18.2602 17.8698C18.2602 16.7562 16.8247 16.4136 16.0273 16.1566C13.7145 15.3857 12.1993 14.786 12.1993 11.788C12.1993 8.70423 14.193 6.56274 17.1437 6.56274C18.5792 6.56274 20.3337 7.0767 21.6097 7.84763L20.0147 11.1027Z" fill="white"/>
<path fill-rule="evenodd" clip-rule="evenodd" d="M26.9531 13.3296C27.8303 12.1304 28.7873 11.6165 30.0633 11.6165C31.419 11.6165 32.695 12.2161 33.4128 13.6722C34.0508 12.3874 35.4065 11.6165 36.6825 11.6165C39.2345 11.6165 40.032 13.4153 40.032 15.8137V22.495H36.6028V17.4412C36.6028 16.3276 36.6028 14.5288 35.1673 14.5288C33.5723 14.5288 33.4925 16.1563 33.4925 17.4412V22.495H29.9835V17.4412C29.9835 16.242 29.9835 14.4432 28.4683 14.4432C26.9531 14.4432 26.9531 16.242 26.9531 17.4412V22.495H23.4441V12.0447H26.9531V13.3296Z" fill="white"/>
<path fill-rule="evenodd" clip-rule="evenodd" d="M52.6318 22.5805H49.1228V21.3813C48.5646 22.4092 47.2886 22.8375 46.2518 22.8375C43.3809 22.8375 41.3074 20.2678 41.3074 17.184C41.3074 14.1003 43.3011 11.5305 46.1721 11.5305C47.3683 11.5305 48.4848 11.9588 49.2026 12.9011V11.8731H52.7115V22.5805H52.6318ZM44.8163 17.2697C44.8163 18.5546 45.6138 19.6681 47.0493 19.6681C48.4051 19.6681 49.2026 18.5546 49.2026 17.2697C49.2026 15.9848 48.4051 14.9569 47.0493 14.9569C45.6138 14.8712 44.8163 15.9848 44.8163 17.2697Z" fill="white"/>
<path fill-rule="evenodd" clip-rule="evenodd" d="M58.0546 13.7578C58.7724 12.4729 59.8888 11.8733 61.2446 11.8733H61.8826V15.471C61.4838 15.1284 60.9256 15.1284 60.4471 15.1284C58.4534 15.1284 58.0546 16.4133 58.0546 18.2121V22.4951H54.5457V12.0446H58.0546V13.7578Z" fill="white"/>
<path fill-rule="evenodd" clip-rule="evenodd" d="M66.9872 22.5803H63.4782V15.0424H62.282V12.0443H63.4782V8.78931H66.9872V12.0443H68.9011V15.0424H66.9872V22.5803Z" fill="white"/>
<path fill-rule="evenodd" clip-rule="evenodd" d="M77.992 20.3537C76.7957 21.553 75.2007 22.7522 73.4462 22.7522C71.293 22.7522 69.2195 20.9534 69.2195 18.5549C69.2195 15.9851 70.974 14.7002 72.8082 13.501L72.9677 13.3297C72.25 12.3874 71.4525 11.3595 71.4525 10.0746C71.4525 8.10446 72.8082 6.81958 74.6425 6.81958C76.2375 6.81958 77.673 8.10447 77.673 9.90331C77.673 11.7878 76.397 12.8157 75.121 13.758L78.1515 17.9553L79.7465 15.8995L80.9427 16.9274L79.1085 19.1545L81.501 22.5809H79.5072L77.992 20.3537ZM73.207 15.1285C72.0905 15.8995 70.8145 16.8417 70.8145 18.3836C70.8145 19.8398 72.0107 21.2103 73.3665 21.2103C74.802 21.2103 76.078 20.0111 77.035 19.0688L73.845 14.6146L73.207 15.1285ZM74.4032 12.3018C75.2007 11.6165 76.2375 11.0169 76.2375 9.81765C76.2375 8.8754 75.5197 8.27578 74.6425 8.27578C73.7652 8.27578 73.0475 8.96106 73.0475 9.98897C73.0475 10.7599 73.526 11.2739 73.9247 11.9591L74.3235 12.3874L74.4032 12.3018Z" fill="white"/>
<path fill-rule="evenodd" clip-rule="evenodd" d="M86.2861 10.5028V13.0725H90.433V16.4989H86.2861V22.5807H82.5378V7.07642H90.8318V10.5028H86.2861Z" fill="white"/>
<path fill-rule="evenodd" clip-rule="evenodd" d="M96.1757 7.93274C96.1757 9.13197 95.2187 10.0742 94.1819 10.0742C93.0655 10.0742 92.1882 9.13197 92.1882 7.93274C92.1882 6.73351 93.0655 5.79126 94.1819 5.79126C95.2187 5.87692 96.1757 6.81917 96.1757 7.93274ZM92.4275 12.0444H95.9364V22.5804H92.4275V12.0444Z" fill="white"/>
<path fill-rule="evenodd" clip-rule="evenodd" d="M101.279 13.3296C102.076 12.0447 103.113 11.6165 104.389 11.6165C107.101 11.6165 108.058 13.4153 108.058 15.985V22.495H104.549V17.3555C104.549 16.3276 104.708 14.5288 103.033 14.5288C101.598 14.5288 101.199 15.728 101.199 17.0129V22.495H97.6902V12.0447H101.199V13.3296H101.279Z" fill="white"/>
<path fill-rule="evenodd" clip-rule="evenodd" d="M120.737 22.5805H117.308V21.3813H117.228C116.67 22.4092 115.394 22.8375 114.277 22.8375C111.406 22.8375 109.333 20.2678 109.333 17.184C109.333 14.1003 111.326 11.5305 114.277 11.5305C115.394 11.5305 116.59 11.9588 117.308 12.9011V11.8731H120.737V22.5805ZM112.921 17.2697C112.921 18.5546 113.719 19.6681 115.154 19.6681C116.51 19.6681 117.308 18.5546 117.308 17.2697C117.308 15.9848 116.51 14.9569 115.154 14.9569C113.719 14.8712 112.921 15.9848 112.921 17.2697Z" fill="white"/>
<path fill-rule="evenodd" clip-rule="evenodd" d="M122.653 5.53442H126.162V22.5806H122.653V5.53442Z" fill="white"/>
<path fill-rule="evenodd" clip-rule="evenodd" d="M126.958 21.0391C126.958 20.1826 127.516 19.4973 128.314 19.4973C129.111 19.4973 129.749 20.1826 129.749 21.0391C129.749 21.8957 129.111 22.4953 128.314 22.4953C127.516 22.581 126.958 21.8957 126.958 21.0391ZM129.59 21.0391C129.59 20.2682 129.031 19.7543 128.393 19.7543C127.755 19.7543 127.197 20.2682 127.197 21.0391C127.197 21.7244 127.676 22.324 128.393 22.324C129.111 22.324 129.59 21.8101 129.59 21.0391ZM129.031 21.8101H128.712L128.314 21.0391H128.074V21.8101H127.835V20.1826H128.473C128.792 20.1826 129.031 20.2682 129.031 20.6109C129.031 20.9535 128.792 21.0391 128.553 21.0391L129.031 21.8101ZM128.314 20.8678C128.473 20.8678 128.792 20.9535 128.792 20.6109C128.792 20.4395 128.553 20.4395 128.393 20.4395H128.074V20.8678H128.314Z" fill="white"/>
</svg>
