<svg width="97" height="34" viewBox="0 0 97 34" fill="none" xmlns="http://www.w3.org/2000/svg">
<g clip-path="url(#clip0_282_5417)">
<path fill-rule="evenodd" clip-rule="evenodd" d="M12.2523 28.6156C23.0989 32.4434 33.5333 34 48.2769 34C62.5885 34 74.3677 32.2574 84.3014 28.6841C92.3603 25.8353 96.2769 21.9683 96.2769 16.8483C96.2769 14.763 95.3149 12.7463 93.4204 10.8569C90.2106 7.65563 84.429 4.95364 76.7235 3.03484C68.7235 1.04751 58.9075 0 48.3554 0C41.1799 0 34.8094 0.430751 28.8707 1.31183C23.1088 2.16355 17.8867 3.42643 12.9198 5.16902C4.40937 8.12554 0.276855 11.9925 0.276855 16.9951C0.276855 21.8411 4.41919 25.8549 12.2523 28.6156Z" fill="#17505C"/>
<path fill-rule="evenodd" clip-rule="evenodd" d="M62.8727 8.59545L59.5451 22.1543C58.6617 25.5416 57.6997 25.1011 57.6997 25.5416C57.6997 25.9822 58.5831 26.2758 58.9561 26.2758C59.3979 26.2758 60.0653 26.129 60.6543 26.129C61.3218 26.129 62.3525 26.129 62.9414 23.7011L63.9034 19.8733C64.9341 15.8987 66.858 13.0204 69.1451 13.0204C69.7341 13.0204 69.9598 13.3925 69.9598 13.9015C69.9598 14.3421 69.8126 15.2232 69.4396 16.4762L67.9574 20.9698C67.5844 22.2229 67.3684 23.2508 67.3684 23.9165C67.3684 25.6885 68.4776 26.4227 69.6555 26.4227C70.539 26.4227 71.2065 26.1975 72.6887 25.0228C73.2776 25.8353 73.9451 26.3444 76.085 26.3444C80.885 26.3444 84.8801 23.1039 84.8801 20.0104C84.8801 15.37 77.9402 16.8385 77.9402 13.598C77.9402 12.5701 79.1966 11.6107 80.8261 11.6107C83.8592 11.6107 82.377 14.8511 83.9279 14.8511C84.7426 14.8511 86.2936 13.1575 86.2936 11.7576C86.2936 10.5045 83.1132 9.77023 81.788 9.77023C77.95 9.77023 74.3966 12.4233 74.3966 15.5168C74.3966 17.2888 75.5745 18.1699 78.6077 19.4915L80.3844 20.3041C80.8261 20.7446 80.9733 20.9698 80.9733 21.4103C80.9733 22.3697 80.2371 24.2102 77.9402 24.2102C75.869 24.2102 75.869 22.8103 75.869 21.2635C75.869 20.8229 75.4273 20.3824 75.1328 20.3824C74.0236 20.3824 73.3561 22.8103 72.2469 22.8103C71.8739 22.8103 71.8052 22.5851 71.8052 22.1445C71.8052 21.9194 71.8052 21.704 72.1782 20.5978L73.5819 15.7322C74.0236 14.1854 74.3181 12.854 74.3181 12.1981C74.3181 10.6513 73.2874 9.62338 71.4322 9.62338C69.7341 9.62338 68.1046 10.7982 65.8175 12.717L67.6629 5.27671C67.6629 4.611 66.9954 4.24878 66.7009 4.24878C65.523 4.24878 61.312 6.46128 61.312 7.19551C61.3218 7.7829 62.8727 7.92975 62.8727 8.59545Z" fill="white"/>
<path fill-rule="evenodd" clip-rule="evenodd" d="M15.0396 8.31142L11.6433 22.3892C10.9071 25.2674 9.50342 24.6017 9.50342 25.4827C9.50342 25.9233 10.1709 26.217 10.6126 26.217C14.4507 26.217 14.5979 26.0701 15.4126 22.7514L18.5145 10.4456C19.3979 7.12685 19.9181 5.65838 23.3145 5.65838C25.3856 5.65838 26.1218 6.98 26.1218 8.75196C26.1218 12.4329 23.3145 15.3797 20.5856 15.3797C19.9967 15.3797 19.3292 15.3013 19.0347 15.3013C18.1513 15.3013 17.7096 15.6734 17.7096 16.4076C17.7096 17.8075 21.4003 25.982 22.8826 27.9791C24.4335 30.0448 26.4261 31.151 29.0862 31.151C29.901 31.151 30.1954 30.9259 30.1954 30.4168C30.1954 29.4574 24.8065 27.3232 21.9206 17.1516C26.7991 16.2705 30.4899 13.0301 30.4899 8.52679C30.4899 5.64859 28.6445 3.80811 25.3954 3.80811C24.728 3.80811 13.8715 5.0612 13.8715 6.83316C13.8519 7.56739 15.0396 7.35202 15.0396 8.31142Z" fill="white"/>
<path fill-rule="evenodd" clip-rule="evenodd" d="M29.3423 26.5108C31.3349 26.5108 32.5913 25.4828 34.6625 23.192C34.6625 25.3262 35.2515 26.3639 36.7337 26.3639C37.9901 26.3639 38.8048 25.7765 40.2772 23.9361C40.503 25.708 41.1607 26.5108 42.4171 26.5108C43.595 26.5108 44.4883 25.8451 45.8919 24.0829L44.7827 28.8016C44.1938 31.2295 42.7116 30.7889 42.7116 31.6015C42.7116 32.1889 43.5263 32.3357 45.2245 32.3357C47.5901 32.3357 47.8846 31.3078 48.4048 29.3107L49.3668 25.4828C50.3288 26.1485 51.065 26.4422 52.0956 26.4422C56.2281 26.4422 60.6649 19.7362 60.6649 13.4022C60.6649 11.4149 59.5557 9.64293 57.4159 9.64293C56.0122 9.64293 54.687 10.524 52.6159 12.4428C52.8416 11.7771 52.9889 11.0429 52.9889 10.6023C52.9889 10.0149 52.6944 9.78978 52.3214 9.78978C50.6919 9.78978 46.7852 12.0023 46.7852 12.7365C46.7852 13.4022 48.2674 13.1771 48.2674 14.0581L46.8441 20.167C46.4024 21.7921 45.7349 22.82 44.9987 22.82C44.6257 22.82 44.3312 22.448 44.3312 21.8606L48.5423 3.95506C48.5423 3.36767 48.1692 3.07397 47.7275 3.07397C46.9913 3.07397 42.1913 5.06131 42.1913 6.09902C42.1913 6.83326 43.8208 6.61788 43.8208 7.72413L41.0134 19.4327C40.4245 21.7138 40.0515 22.7515 39.2367 22.7515C38.8637 22.7515 38.422 22.4578 38.422 21.9389L41.2294 10.8862C41.2294 10.152 40.7091 10.152 40.1202 10.152L38.049 10.4457C36.3508 9.92684 35.4674 9.63314 34.5742 9.63314C30.7361 9.63314 26.2993 17.3671 26.2993 22.7515C26.3091 24.8171 27.4969 26.5108 29.3423 26.5108Z" fill="white"/>
<path fill-rule="evenodd" clip-rule="evenodd" d="M49.5239 30.5049C49.5239 29.0169 50.7411 27.9106 52.1742 27.9106C53.5975 27.9106 54.8049 29.0071 54.8049 30.5049C54.8049 32.0126 53.5877 33.109 52.1742 33.109C50.7411 33.1188 49.5239 32.0126 49.5239 30.5049Z" fill="white"/>
<path fill-rule="evenodd" clip-rule="evenodd" d="M52.1736 32.6782C53.3515 32.6782 54.284 31.758 54.284 30.5049C54.284 29.2713 53.3515 28.3413 52.1736 28.3413C50.976 28.3413 50.0533 29.2713 50.0533 30.5049C50.0435 31.758 50.976 32.6782 52.1736 32.6782Z" fill="#17505C"/>
<path fill-rule="evenodd" clip-rule="evenodd" d="M51.6239 32.0128H51.1724V29.0171H52.3208C53.0276 29.0171 53.381 29.2814 53.381 29.8688C53.381 30.4072 53.0472 30.6422 52.6055 30.6911L53.4595 32.0128H52.949L52.154 30.7107H51.6337V32.0128H51.6239Z" fill="white"/>
<path fill-rule="evenodd" clip-rule="evenodd" d="M52.1635 30.329C52.5463 30.329 52.8899 30.2996 52.8899 29.8395C52.8899 29.4675 52.5561 29.3989 52.2322 29.3989H51.6138V30.329H52.1635Z" fill="#17505C"/>
<path fill-rule="evenodd" clip-rule="evenodd" d="M35.0544 11.3267C36.0164 11.3267 36.4581 12.1392 36.4581 13.1671C36.4581 19.0606 33.0618 22.8884 31.4323 22.8884C30.6961 22.8884 30.2544 22.3696 30.2544 21.3416C30.2544 19.7948 31.1378 16.7013 32.62 13.6077C33.3562 12.1392 34.0924 11.3267 35.0544 11.3267Z" fill="#17505C"/>
<path fill-rule="evenodd" clip-rule="evenodd" d="M55.2466 12.9519C56.0613 12.9519 56.5031 13.7645 56.5031 14.6455C56.5031 20.6173 52.8123 24.5137 51.7718 24.5137C50.957 24.5137 50.2896 23.6326 50.2896 22.2326C50.2994 17.1517 53.6172 12.9519 55.2466 12.9519Z" fill="#17505C"/>
</g>
<defs>
<clipPath id="clip0_282_5417">
<rect width="96" height="34" fill="white" transform="translate(0.276855)"/>
</clipPath>
</defs>
</svg>
