<svg width="18" height="14" viewBox="0 0 18 14" fill="none" xmlns="http://www.w3.org/2000/svg">
<path d="M10.4815 4.51904C10.2892 4.51904 10.1319 4.67636 10.1319 4.86863V6.4674H10.8312V4.86863C10.8312 4.67635 10.6739 4.51904 10.4815 4.51904Z" fill="#17505C"/>
<path d="M11.0524 7.1355H6.95747C3.97187 7.1355 1.54163 9.56557 1.54163 12.5513V13.5284C1.54163 13.7868 1.75341 13.9985 2.01168 13.9985H15.9979C16.2563 13.9985 16.468 13.7867 16.468 13.5284V12.5513C16.468 9.5656 14.0398 7.1355 11.0521 7.1355H11.0524ZM9.005 12.9669C7.6821 12.9669 6.60597 11.8908 6.60597 10.566C6.60597 9.24307 7.6821 8.16695 9.005 8.16695C10.3279 8.16695 11.404 9.24307 11.404 10.566C11.404 11.8907 10.3279 12.9669 9.005 12.9669Z" fill="#17505C"/>
<path d="M9.00511 8.83521C8.04942 8.83521 7.27234 9.61215 7.27234 10.568C7.27234 11.5237 8.04928 12.3007 9.00511 12.3007C9.9608 12.3007 10.7379 11.5238 10.7379 10.568C10.7379 9.61215 9.9608 8.83521 9.00511 8.83521Z" fill="#17505C"/>
<path d="M7.52872 4.51904C7.33645 4.51904 7.17914 4.67636 7.17914 4.86863V6.4674H7.87845V4.86863C7.88021 4.67635 7.72289 4.51904 7.52872 4.51904Z" fill="#17505C"/>
<path d="M14.4889 1.93328C13.0086 1.16987 11.0602 0.750244 9.00511 0.750244C6.94999 0.750244 5.00177 1.1699 3.52128 1.93328C2.39462 2.51403 1.00179 3.58054 0.758971 5.36576C0.722115 5.64164 0.799758 5.92525 0.97455 6.14666L1.80786 7.20138C2.01179 7.45978 2.37112 7.53742 2.66448 7.38783L5.55306 5.91154C5.85021 5.76005 6.02703 5.44731 6.00563 5.11316L5.93761 4.10301C5.91824 3.82334 6.11051 3.57076 6.38436 3.51252C7.25659 3.32797 8.14044 3.23475 9.00684 3.23475C9.87325 3.23475 10.7571 3.32797 11.6293 3.51252C11.9032 3.57079 12.0956 3.82336 12.0761 4.10301L12.0081 5.11316C11.9847 5.44527 12.1635 5.76003 12.4606 5.91154L15.3492 7.38783C15.6426 7.53742 16.0019 7.45775 16.2058 7.20138L17.0391 6.14666C17.2139 5.92525 17.2917 5.64164 17.2547 5.36576C17.0082 3.58054 15.6136 2.51403 14.4889 1.93328H14.4889Z" fill="#17505C"/>
</svg>
