<svg width="16" height="13" viewBox="0 0 16 13" fill="none" xmlns="http://www.w3.org/2000/svg">
<path d="M15.0588 5.58278H3.20942L6.3153 2.48631C6.49253 2.30908 6.59209 2.06871 6.59209 1.81807C6.59209 1.56744 6.49253 1.32707 6.3153 1.14984C6.13807 0.972612 5.8977 0.873047 5.64707 0.873047C5.39643 0.873047 5.15606 0.972612 4.97883 1.14984L0.272948 5.85572C0.187262 5.94523 0.120095 6.05078 0.0753007 6.16631C-0.0188339 6.39545 -0.0188339 6.65246 0.0753007 6.88161C0.120095 6.99714 0.187262 7.10268 0.272948 7.19219L4.97883 11.8981C5.06633 11.9863 5.17042 12.0563 5.28511 12.1041C5.3998 12.1519 5.52282 12.1765 5.64707 12.1765C5.77131 12.1765 5.89433 12.1519 6.00902 12.1041C6.12371 12.0563 6.22781 11.9863 6.3153 11.8981C6.40352 11.8106 6.47353 11.7065 6.52132 11.5918C6.5691 11.4771 6.5937 11.3541 6.5937 11.2298C6.5937 11.1056 6.5691 10.9826 6.52132 10.8679C6.47353 10.7532 6.40352 10.6491 6.3153 10.5616L3.20942 7.46513H15.0588C15.3084 7.46513 15.5478 7.36597 15.7243 7.18947C15.9008 7.01297 16 6.77357 16 6.52396C16 6.27434 15.9008 6.03495 15.7243 5.85845C15.5478 5.68194 15.3084 5.58278 15.0588 5.58278Z" fill="#A4C1C8"/>
</svg>
