<svg width="12" height="21" viewBox="0 0 12 21" fill="none" xmlns="http://www.w3.org/2000/svg">
<path d="M0.690026 12.0649L9.18003 20.5399C9.31947 20.6805 9.48537 20.7921 9.66816 20.8683C9.85095 20.9444 10.047 20.9836 10.245 20.9836C10.443 20.9836 10.6391 20.9444 10.8219 20.8683C11.0047 20.7921 11.1706 20.6805 11.31 20.5399C11.5894 20.2589 11.7462 19.8787 11.7462 19.4824C11.7462 19.0862 11.5894 18.706 11.31 18.4249L3.88503 10.9249L11.31 3.49994C11.5894 3.2189 11.7462 2.83872 11.7462 2.44244C11.7462 2.04617 11.5894 1.66599 11.31 1.38494C11.1711 1.24321 11.0054 1.13046 10.8226 1.05321C10.6398 0.975967 10.4435 0.93577 10.245 0.934946C10.0466 0.93577 9.85024 0.975967 9.66743 1.05321C9.48462 1.13046 9.31895 1.24321 9.18003 1.38494L0.690026 9.85994C0.537769 10.0004 0.416256 10.1709 0.333145 10.3606C0.250034 10.5504 0.207128 10.7553 0.207127 10.9624C0.207127 11.1696 0.250034 11.3745 0.333145 11.5643C0.416256 11.754 0.537769 11.9245 0.690026 12.0649Z" fill="#17505C"/>
</svg>
