<svg width="14" height="14" viewBox="0 0 14 14" fill="none" xmlns="http://www.w3.org/2000/svg">
<path d="M13 0.333252H1.00004C0.600041 0.333252 0.333374 0.599919 0.333374 0.999919V12.9999C0.333374 13.3999 0.600041 13.6666 1.00004 13.6666H13C13.4 13.6666 13.6667 13.3999 13.6667 12.9999V0.999919C13.6667 0.599919 13.4 0.333252 13 0.333252ZM10.8 5.19992L6.26671 9.73325C6.00004 9.99992 5.60004 9.99992 5.33337 9.73325L3.20004 7.59992C2.93337 7.33325 2.93337 6.93325 3.20004 6.66659C3.46671 6.39992 3.86671 6.39992 4.13337 6.66659L5.80004 8.33325L9.86671 4.26659C10.1334 3.99992 10.5334 3.99992 10.8 4.26659C11.0667 4.53325 11.0667 4.93325 10.8 5.19992Z" fill="#FF914D"/>
</svg>
