<svg width="18" height="17" viewBox="0 0 18 17" fill="none" xmlns="http://www.w3.org/2000/svg">
<path d="M8.97988 0.166748C7.33171 0.166748 5.72054 0.65549 4.35013 1.57117C2.97972 2.48685 1.91162 3.78834 1.28089 5.31105C0.650156 6.83377 0.485128 8.50933 0.806672 10.1258C1.12822 11.7423 1.92189 13.2272 3.08733 14.3926C4.25276 15.5581 5.73762 16.3517 7.35413 16.6733C8.97064 16.9948 10.6462 16.8298 12.1689 16.1991C13.6916 15.5683 14.9931 14.5002 15.9088 13.1298C16.8245 11.7594 17.3132 10.1483 17.3132 8.50008C17.3132 7.40573 17.0977 6.3221 16.6789 5.31105C16.2601 4.30001 15.6463 3.38135 14.8724 2.60752C14.0986 1.8337 13.18 1.21987 12.1689 0.801085C11.1579 0.382296 10.0742 0.166748 8.97988 0.166748ZM8.97988 15.1667C7.66134 15.1667 6.37241 14.7758 5.27608 14.0432C4.17975 13.3107 3.32527 12.2695 2.82069 11.0513C2.3161 9.83313 2.18408 8.49269 2.44131 7.19948C2.69855 5.90627 3.33349 4.71839 4.26584 3.78604C5.19819 2.85369 6.38607 2.21875 7.67928 1.96151C8.97249 1.70428 10.3129 1.8363 11.5311 2.34088C12.7493 2.84547 13.7905 3.69995 14.523 4.79628C15.2556 5.89261 15.6465 7.18154 15.6465 8.50008C15.6465 10.2682 14.9442 11.9639 13.6939 13.2141C12.4437 14.4644 10.748 15.1667 8.97988 15.1667ZM8.97988 3.50008C8.75887 3.50008 8.54691 3.58788 8.39063 3.74416C8.23435 3.90044 8.14655 4.1124 8.14655 4.33342V7.66675H6.47988C6.25887 7.66675 6.04691 7.75455 5.89063 7.91083C5.73435 8.06711 5.64655 8.27907 5.64655 8.50008C5.64655 8.7211 5.73435 8.93306 5.89063 9.08934C6.04691 9.24562 6.25887 9.33342 6.47988 9.33342H8.97988C9.2009 9.33342 9.41286 9.24562 9.56914 9.08934C9.72542 8.93306 9.81322 8.7211 9.81322 8.50008V4.33342C9.81322 4.1124 9.72542 3.90044 9.56914 3.74416C9.41286 3.58788 9.2009 3.50008 8.97988 3.50008Z" fill="#02323D"/>
</svg>
