<svg width="16" height="13" viewBox="0 0 16 13" fill="none" xmlns="http://www.w3.org/2000/svg">
<path d="M10.1675 5.36024L7.9175 4.05524C7.7176 3.93714 7.48968 3.87484 7.2575 3.87484C7.02532 3.87484 6.7974 3.93714 6.5975 4.05524C6.39607 4.16879 6.22909 4.33469 6.11423 4.53537C5.99936 4.73605 5.94089 4.96405 5.945 5.19524V7.80524C5.94089 8.03644 5.99936 8.26444 6.11423 8.46512C6.22909 8.6658 6.39607 8.83169 6.5975 8.94524C6.7974 9.06335 7.02532 9.12565 7.2575 9.12565C7.48968 9.12565 7.7176 9.06335 7.9175 8.94524L10.1675 7.64024C10.3599 7.52218 10.5187 7.35678 10.6289 7.15982C10.7391 6.96286 10.797 6.74094 10.797 6.51524C10.797 6.28955 10.7391 6.06763 10.6289 5.87067C10.5187 5.67371 10.3599 5.5083 10.1675 5.39024V5.36024ZM7.43 7.49024V5.51024L9.14 6.50024L7.43 7.49024ZM13.25 0.500244H2.75C2.15326 0.500244 1.58097 0.737297 1.15901 1.15925C0.737053 1.58121 0.5 2.15351 0.5 2.75024V10.2502C0.5 10.847 0.737053 11.4193 1.15901 11.8412C1.58097 12.2632 2.15326 12.5002 2.75 12.5002H13.25C13.8467 12.5002 14.419 12.2632 14.841 11.8412C15.2629 11.4193 15.5 10.847 15.5 10.2502V2.75024C15.5 2.15351 15.2629 1.58121 14.841 1.15925C14.419 0.737297 13.8467 0.500244 13.25 0.500244ZM14 10.2502C14 10.4492 13.921 10.6399 13.7803 10.7806C13.6397 10.9212 13.4489 11.0002 13.25 11.0002H2.75C2.55109 11.0002 2.36032 10.9212 2.21967 10.7806C2.07902 10.6399 2 10.4492 2 10.2502V2.75024C2 2.55133 2.07902 2.36057 2.21967 2.21991C2.36032 2.07926 2.55109 2.00024 2.75 2.00024H13.25C13.4489 2.00024 13.6397 2.07926 13.7803 2.21991C13.921 2.36057 14 2.55133 14 2.75024V10.2502Z" fill="#17505C"/>
</svg>
